<svg width="99" height="21" viewBox="0 0 99 21" fill="none" xmlns="http://www.w3.org/2000/svg">
<path d="M15.9546 0.689453H69.8059L66.7467 4.3049H73.1432L76.2024 0.689453H99.0059L83.0513 20.3595H70.6402L73.1432 16.2637H66.7467L63.9656 20.3595H30.5922L33.0952 16.2637H26.6987L24.1957 20.3595H0L15.9546 0.689453Z" fill="#212121"/>
<path d="M27.7371 7.99313L29.2007 12.2762H29.2598L30.7234 7.99313H31.5811L29.6886 13.252H28.7719L26.8795 7.99313H27.7371ZM32.2789 13.252V9.30783H33.0466V13.252H32.2789ZM32.6666 8.69927C32.5331 8.69927 32.4184 8.65476 32.3225 8.56574C32.2284 8.47501 32.1813 8.36717 32.1813 8.2422C32.1813 8.11552 32.2284 8.00768 32.3225 7.91866C32.4184 7.82793 32.5331 7.78257 32.6666 7.78257C32.8001 7.78257 32.914 7.82793 33.0081 7.91866C33.104 8.00768 33.1519 8.11552 33.1519 8.2422C33.1519 8.36717 33.104 8.47501 33.0081 8.56574C32.914 8.65476 32.8001 8.69927 32.6666 8.69927ZM35.7794 13.3316C35.3908 13.3316 35.0561 13.2485 34.7754 13.0825C34.4964 12.9147 34.2807 12.6793 34.1283 12.3763C33.9777 12.0716 33.9023 11.7147 33.9023 11.3056C33.9023 10.9016 33.9777 10.5455 34.1283 10.2374C34.2807 9.92924 34.4929 9.68872 34.7651 9.51582C35.039 9.34293 35.3591 9.25648 35.7255 9.25648C35.948 9.25648 36.1637 9.29328 36.3726 9.36689C36.5814 9.4405 36.7689 9.55605 36.9349 9.71354C37.101 9.87103 37.2319 10.0756 37.3278 10.3272C37.4236 10.5772 37.4716 10.881 37.4716 11.2388V11.511H34.3363V10.9358H36.7192C36.7192 10.7338 36.6781 10.5549 36.596 10.3991C36.5138 10.2417 36.3982 10.1175 36.2493 10.0268C36.1021 9.93608 35.9292 9.89072 35.7306 9.89072C35.5149 9.89072 35.3266 9.94379 35.1657 10.0499C35.0065 10.1543 34.8832 10.2913 34.7959 10.4608C34.7103 10.6285 34.6675 10.8108 34.6675 11.0077V11.4571C34.6675 11.7207 34.7138 11.9449 34.8062 12.1298C34.9004 12.3147 35.0313 12.4559 35.1991 12.5535C35.3668 12.6494 35.5629 12.6973 35.7871 12.6973C35.9326 12.6973 36.0653 12.6768 36.1851 12.6357C36.3049 12.5929 36.4085 12.5295 36.4958 12.4457C36.5831 12.3618 36.6499 12.2582 36.6961 12.135L37.4228 12.2659C37.3646 12.4799 37.2602 12.6674 37.1095 12.8283C36.9606 12.9875 36.7731 13.1116 36.5472 13.2006C36.3229 13.2879 36.067 13.3316 35.7794 13.3316ZM39.1714 13.252L38.0108 9.30783H38.8043L39.5772 12.2043H39.6157L40.3911 9.30783H41.1846L41.9549 12.1915H41.9934L42.7612 9.30783H43.5547L42.3966 13.252H41.6134L40.8123 10.4043H40.7532L39.9521 13.252H39.1714ZM46.2585 13.252V7.99313H49.5556V8.67616H47.052V10.2785H49.3835V10.9589H47.052V12.5689H49.5864V13.252H46.2585ZM53.9279 9.30783L52.4976 13.252H51.6759L50.2431 9.30783H51.0674L52.0662 12.343H52.1073L53.1036 9.30783H53.9279ZM56.2151 13.3316C55.8265 13.3316 55.4919 13.2485 55.2111 13.0825C54.9321 12.9147 54.7164 12.6793 54.564 12.3763C54.4134 12.0716 54.3381 11.7147 54.3381 11.3056C54.3381 10.9016 54.4134 10.5455 54.564 10.2374C54.7164 9.92924 54.9287 9.68872 55.2009 9.51582C55.4748 9.34293 55.7949 9.25648 56.1612 9.25648C56.3838 9.25648 56.5994 9.29328 56.8083 9.36689C57.0171 9.4405 57.2046 9.55605 57.3706 9.71354C57.5367 9.87103 57.6676 10.0756 57.7635 10.3272C57.8594 10.5772 57.9073 10.881 57.9073 11.2388V11.511H54.772V10.9358H57.1549C57.1549 10.7338 57.1139 10.5549 57.0317 10.3991C56.9495 10.2417 56.834 10.1175 56.685 10.0268C56.5378 9.93608 56.3649 9.89072 56.1663 9.89072C55.9507 9.89072 55.7623 9.94379 55.6014 10.0499C55.4422 10.1543 55.319 10.2913 55.2317 10.4608C55.1461 10.6285 55.1033 10.8108 55.1033 11.0077V11.4571C55.1033 11.7207 55.1495 11.9449 55.2419 12.1298C55.3361 12.3147 55.4671 12.4559 55.6348 12.5535C55.8026 12.6494 55.9986 12.6973 56.2228 12.6973C56.3683 12.6973 56.501 12.6768 56.6208 12.6357C56.7407 12.5929 56.8442 12.5295 56.9315 12.4457C57.0188 12.3618 57.0856 12.2582 57.1318 12.135L57.8585 12.2659C57.8003 12.4799 57.6959 12.6674 57.5452 12.8283C57.3963 12.9875 57.2089 13.1116 56.9829 13.2006C56.7586 13.2879 56.5027 13.3316 56.2151 13.3316ZM59.5269 10.9101V13.252H58.7592V9.30783H59.4961V9.94978H59.5449C59.6356 9.74093 59.7777 9.57317 59.9712 9.44649C60.1663 9.31982 60.412 9.25648 60.7081 9.25648C60.9769 9.25648 61.2123 9.31297 61.4143 9.42595C61.6163 9.53722 61.7729 9.70327 61.8842 9.9241C61.9954 10.1449 62.0511 10.418 62.0511 10.7432V13.252H61.2833V10.8357C61.2833 10.5498 61.2088 10.3264 61.0599 10.1655C60.911 10.0028 60.7064 9.92153 60.4462 9.92153C60.2682 9.92153 60.1098 9.96005 59.9712 10.0371C59.8342 10.1141 59.7255 10.2271 59.6451 10.376C59.5663 10.5233 59.5269 10.7013 59.5269 10.9101ZM64.9219 9.30783V9.9241H62.7675V9.30783H64.9219ZM63.3452 8.36289H64.113V12.0939C64.113 12.2428 64.1353 12.3549 64.1798 12.4303C64.2243 12.5039 64.2816 12.5544 64.3518 12.5818C64.4237 12.6074 64.5016 12.6203 64.5855 12.6203C64.6471 12.6203 64.701 12.616 64.7472 12.6074C64.7935 12.5989 64.8294 12.592 64.8551 12.5869L64.9938 13.2211C64.9492 13.2383 64.8859 13.2554 64.8037 13.2725C64.7216 13.2913 64.6189 13.3016 64.4956 13.3033C64.2936 13.3067 64.1053 13.2708 63.9307 13.1955C63.7561 13.1201 63.6148 13.0037 63.507 12.8462C63.3992 12.6888 63.3452 12.491 63.3452 12.2531V8.36289Z" fill="white"/>
</svg>
