<svg width="19" height="18" viewBox="0 0 19 18" fill="none" xmlns="http://www.w3.org/2000/svg">
<path d="M12.6875 1.8C12.6875 0.81 13.4975 0 14.4875 0C15.4775 0 16.2875 0.81 16.2875 1.8C16.2875 2.79 15.4775 3.6 14.4875 3.6C13.4975 3.6 12.6875 2.79 12.6875 1.8ZM16.9895 5.022C16.2003 4.67765 15.3486 4.49994 14.4875 4.5C13.8845 4.5 13.3085 4.59 12.7595 4.752C13.2815 5.247 13.5875 5.94 13.5875 6.687V7.2H18.0875V6.687C18.0875 5.958 17.6555 5.31 16.9895 5.022ZM3.68753 3.6C4.67753 3.6 5.48752 2.79 5.48752 1.8C5.48752 0.81 4.67753 0 3.68753 0C2.69753 0 1.88752 0.81 1.88752 1.8C1.88752 2.79 2.69753 3.6 3.68753 3.6ZM5.41553 4.752C4.86653 4.59 4.29052 4.5 3.68753 4.5C2.79653 4.5 1.95053 4.689 1.18553 5.022C0.859466 5.16137 0.581556 5.39349 0.386341 5.68951C0.191126 5.98554 0.0872151 6.3324 0.0875251 6.687V7.2H4.58753V6.687C4.58753 5.94 4.89353 5.247 5.41553 4.752ZM7.28753 1.8C7.28753 0.81 8.09752 0 9.08753 0C10.0775 0 10.8875 0.81 10.8875 1.8C10.8875 2.79 10.0775 3.6 9.08753 3.6C8.09752 3.6 7.28753 2.79 7.28753 1.8ZM12.6875 7.2H5.48752V6.687C5.48752 5.958 5.91953 5.31 6.58553 5.022C7.37469 4.67758 8.22647 4.4998 9.08753 4.4998C9.94858 4.4998 10.8004 4.67758 11.5895 5.022C11.9156 5.16137 12.1935 5.39349 12.3887 5.68951C12.5839 5.98554 12.6878 6.3324 12.6875 6.687V7.2ZM11.7875 12.6C11.7875 11.61 12.5975 10.8 13.5875 10.8C14.5775 10.8 15.3875 11.61 15.3875 12.6C15.3875 13.59 14.5775 14.4 13.5875 14.4C12.5975 14.4 11.7875 13.59 11.7875 12.6ZM17.1875 18H9.98752V17.487C9.98752 16.758 10.4195 16.11 11.0855 15.822C11.8747 15.4776 12.7265 15.2998 13.5875 15.2998C14.4486 15.2998 15.3004 15.4776 16.0895 15.822C16.4156 15.9614 16.6935 16.1935 16.8887 16.4895C17.0839 16.7855 17.1878 17.1324 17.1875 17.487V18ZM2.78752 12.6C2.78752 11.61 3.59753 10.8 4.58753 10.8C5.57753 10.8 6.38753 11.61 6.38753 12.6C6.38753 13.59 5.57753 14.4 4.58753 14.4C3.59753 14.4 2.78752 13.59 2.78752 12.6ZM8.18752 18H0.987525V17.487C0.987525 16.758 1.41952 16.11 2.08552 15.822C2.87469 15.4776 3.72647 15.2998 4.58753 15.2998C5.44858 15.2998 6.30036 15.4776 7.08952 15.822C7.41558 15.9614 7.69349 16.1935 7.88871 16.4895C8.08392 16.7855 8.18783 17.1324 8.18752 17.487V18ZM9.76252 9.9V8.1H8.41253V9.9H6.38753L9.08753 12.6L11.7875 9.9H9.76252Z" fill="black" fill-opacity="0.5"/>
<path d="M16.8096 5.43445L16.8109 5.43504C17.3142 5.65268 17.6375 6.13969 17.6375 6.687V6.75H14.0375V6.687C14.0375 6.08633 13.8677 5.51447 13.5621 5.02736C13.8628 4.97675 14.1713 4.95 14.4875 4.95H14.4876C15.2867 4.94994 16.0772 5.11487 16.8096 5.43445ZM3.68753 4.95C4.00379 4.95 4.3122 4.97675 4.61297 5.02736C4.30735 5.51447 4.13753 6.08633 4.13753 6.687V6.75H0.537525L0.537525 6.687L0.537525 6.68661C0.537292 6.42022 0.615354 6.15964 0.762008 5.93725L0.389419 5.69154L0.762008 5.93725C0.908662 5.71487 1.11744 5.54049 1.36239 5.43579L1.36239 5.43579L1.36513 5.4346C2.07572 5.12529 2.86074 4.95 3.68753 4.95ZM6.76414 5.43504L6.76553 5.43443C7.49792 5.11479 8.28842 4.9498 9.08753 4.9498C9.88663 4.9498 10.6771 5.11479 11.4095 5.43443L11.4095 5.43444L11.4127 5.43579C11.6576 5.54049 11.8664 5.71487 12.013 5.93725C12.1597 6.15964 12.2378 6.42022 12.2375 6.68661V6.687V6.75H5.93752V6.687C5.93752 6.13969 6.26084 5.65268 6.76414 5.43504ZM16.7375 17.487V17.55H10.4375V17.487C10.4375 16.9397 10.7608 16.4527 11.2641 16.235L11.2655 16.2344C11.9979 15.9148 12.7884 15.7498 13.5875 15.7498C14.3866 15.7498 15.1771 15.9148 15.9095 16.2344L15.9127 16.2358C16.1576 16.3405 16.3664 16.5149 16.513 16.7373C16.6597 16.9596 16.7378 17.2202 16.7375 17.4866V17.487ZM7.73752 17.487V17.55H1.43753V17.487C1.43753 16.9397 1.76084 16.4527 2.26414 16.235L2.26552 16.2344C2.99792 15.9148 3.78842 15.7498 4.58753 15.7498C5.38663 15.7498 6.17713 15.9148 6.90952 16.2344L6.91266 16.2358C7.15761 16.3405 7.36639 16.5149 7.51304 16.7373C7.6597 16.9596 7.73776 17.2202 7.73752 17.4866V17.487ZM9.31252 9.9V10.35H9.76252H10.7011L9.08753 11.9636L7.47392 10.35H8.41253H8.86252V9.9V8.55H9.31252V9.9ZM13.1375 1.8C13.1375 1.05853 13.7461 0.45 14.4875 0.45C15.229 0.45 15.8375 1.05853 15.8375 1.8C15.8375 2.54147 15.229 3.15 14.4875 3.15C13.7461 3.15 13.1375 2.54147 13.1375 1.8ZM5.03753 1.8C5.03753 2.54147 4.429 3.15 3.68753 3.15C2.94605 3.15 2.33752 2.54147 2.33752 1.8C2.33752 1.05853 2.94605 0.45 3.68753 0.45C4.429 0.45 5.03753 1.05853 5.03753 1.8ZM7.73752 1.8C7.73752 1.05853 8.34605 0.45 9.08753 0.45C9.829 0.45 10.4375 1.05853 10.4375 1.8C10.4375 2.54147 9.829 3.15 9.08753 3.15C8.34605 3.15 7.73752 2.54147 7.73752 1.8ZM12.2375 12.6C12.2375 11.8585 12.8461 11.25 13.5875 11.25C14.329 11.25 14.9375 11.8585 14.9375 12.6C14.9375 13.3415 14.329 13.95 13.5875 13.95C12.8461 13.95 12.2375 13.3415 12.2375 12.6ZM3.23752 12.6C3.23752 11.8585 3.84605 11.25 4.58753 11.25C5.329 11.25 5.93753 11.8585 5.93753 12.6C5.93753 13.3415 5.329 13.95 4.58753 13.95C3.84605 13.95 3.23752 13.3415 3.23752 12.6ZM16.0895 15.8221L16.0895 15.8221L16.0895 15.8221Z" stroke="black" stroke-opacity="0.5" stroke-width="0.9"/>
</svg>
