<svg width="46" height="45" viewBox="0 0 46 45" fill="none" xmlns="http://www.w3.org/2000/svg">
<path opacity="0.21" fill-rule="evenodd" clip-rule="evenodd" d="M0.5 22.5V27.75C0.5 37.2769 8.22309 45 17.75 45H23H28.25C37.7769 45 45.5 37.2769 45.5 27.75V22.5V17.25C45.5 7.72309 37.7769 0 28.25 0H23H17.75C8.22309 0 0.5 7.72309 0.5 17.25V22.5Z" fill="#4AD991"/>
<path d="M14.8333 30.6667H32.3333C32.9777 30.6667 33.5 31.189 33.5 31.8333C33.5 32.4777 32.9777 33 32.3333 33H13.6667C13.0223 33 12.5 32.4777 12.5 31.8333V13.1667C12.5 12.5223 13.0223 12 13.6667 12C14.311 12 14.8333 12.5223 14.8333 13.1667V30.6667Z" fill="#4AD991"/>
<path opacity="0.5" d="M19.1844 25.632C18.7437 26.102 18.0054 26.1258 17.5354 25.6852C17.0653 25.2445 17.0415 24.5062 17.4822 24.0361L21.8572 19.3694C22.2834 18.9148 22.9916 18.8754 23.4656 19.2799L26.9186 22.2265L31.4176 16.5278C31.8169 16.0221 32.5505 15.9357 33.0562 16.335C33.5619 16.7343 33.6482 17.4679 33.249 17.9736L27.999 24.6236C27.5889 25.143 26.8294 25.2177 26.326 24.7882L22.7979 21.7776L19.1844 25.632Z" fill="#4AD991"/>
</svg>
