<svg width="45" height="45" viewBox="0 0 45 45" fill="none" xmlns="http://www.w3.org/2000/svg">
<path opacity="0.21" fill-rule="evenodd" clip-rule="evenodd" d="M0 22.5V27.75C0 37.2769 7.72309 45 17.25 45H22.5H27.75C37.2769 45 45 37.2769 45 27.75V22.5V17.25C45 7.72309 37.2769 0 27.75 0H22.5H17.25C7.72309 0 0 7.72309 0 17.25V22.5Z" fill="#8280FF"/>
<path opacity="0.587821" fill-rule="evenodd" clip-rule="evenodd" d="M15.5 17.5C15.5 19.7091 17.2909 21.5 19.5 21.5C21.7091 21.5 23.5 19.7091 23.5 17.5C23.5 15.2909 21.7091 13.5 19.5 13.5C17.2909 13.5 15.5 15.2909 15.5 17.5ZM25.5 21.5002C25.5 23.1571 26.8431 24.5002 28.5 24.5002C30.1569 24.5002 31.5 23.1571 31.5 21.5002C31.5 19.8434 30.1569 18.5002 28.5 18.5002C26.8431 18.5002 25.5 19.8434 25.5 21.5002Z" fill="#8280FF"/>
<path fill-rule="evenodd" clip-rule="evenodd" d="M19.4833 23.5C14.7619 23.5 10.8883 25.9265 10.5007 30.6992C10.4795 30.9592 10.9767 31.5 11.2275 31.5H27.7467C28.4979 31.5 28.5096 30.8955 28.4979 30.7C28.2049 25.7932 24.2712 23.5 19.4833 23.5ZM33.9561 31.5001L30.1001 31.5001C30.1001 29.2492 29.3564 27.1719 28.1013 25.5007C31.5078 25.538 34.2893 27.2603 34.4986 30.9001C34.507 31.0467 34.4986 31.5001 33.9561 31.5001Z" fill="#8280FF"/>
</svg>
