<svg width="45" height="44" viewBox="0 0 45 44" fill="none" xmlns="http://www.w3.org/2000/svg">
<rect width="45" height="43.9773" rx="8" fill="#2F80ED" fill-opacity="0.2"/>
<path d="M32.0625 16.1472V13.8109C32.0625 12.5224 30.9903 11.4746 29.6719 11.4746H14.1328C12.1558 11.4746 10.5469 13.0469 10.5469 14.979V28.9968C10.5469 31.5679 12.6913 32.5012 14.1328 32.5012H32.0625C33.3809 32.5012 34.4531 31.4534 34.4531 30.1649V18.4835C34.4531 17.195 33.3809 16.1472 32.0625 16.1472ZM29.6719 26.6605H27.2812V21.9879H29.6719V26.6605ZM14.1328 16.1472C13.825 16.1337 13.5344 16.0048 13.3215 15.7872C13.1086 15.5696 12.9898 15.2801 12.9898 14.979C12.9898 14.678 13.1086 14.3885 13.3215 14.1709C13.5344 13.9533 13.825 13.8244 14.1328 13.8109H29.6719V16.1472H14.1328Z" fill="#3380FF"/>
</svg>
