<svg width="20" height="17" viewBox="0 0 20 17" fill="none" xmlns="http://www.w3.org/2000/svg">
<mask id="path-1-inside-1_2782_459" fill="white">
<path d="M11.8002 13.1133L12.4752 13.1151V13.1133H11.8002ZM11.8002 4.11328H12.4752V4.11148L11.8002 4.11328ZM12.4698 14.9178L12.4752 13.1151L11.1252 13.1115L11.1198 14.9142L12.4698 14.9178ZM12.702 12.8883C12.8289 12.8883 12.9297 12.9909 12.9297 13.1133H14.2797C14.2797 12.2421 13.5714 11.5383 12.702 11.5383V12.8883ZM12.702 11.5383C11.8326 11.5383 11.1252 12.2421 11.1252 13.1133H12.4752C12.4752 12.9909 12.5751 12.8883 12.702 12.8883V11.5383ZM8.18314 2.08828H11.3421V0.738282H8.18314V2.08828ZM10.8948 15.1383H8.18314V16.4883H10.8948V15.1383ZM8.18314 15.1383C6.46324 15.1383 5.24014 15.1365 4.31314 15.0123C3.40414 14.8908 2.88124 14.6622 2.49874 14.2806L1.54564 15.2373C2.22064 15.9105 3.07744 16.2093 4.13404 16.3515C5.17264 16.491 6.50105 16.4892 8.18405 16.4892L8.18314 15.1383ZM8.18314 0.738282C6.50014 0.738282 5.17174 0.736482 4.13314 0.875982C3.07654 1.01818 2.22064 1.31698 1.54564 1.99018L2.49964 2.94598C2.88124 2.56438 3.40504 2.33578 4.31314 2.21428C5.24014 2.09008 6.46324 2.08828 8.18314 2.08828V0.738282ZM1.51594 7.63138C1.86334 7.82488 2.09464 8.19298 2.09464 8.61328H3.44464C3.44457 8.17275 3.32693 7.74023 3.10384 7.36036C2.88076 6.98048 2.56034 6.66704 2.17564 6.45238L1.51594 7.63138ZM1.67164 5.93128C1.74184 4.26088 1.96954 3.47338 2.49964 2.94598L1.54564 1.99018C0.618644 2.91538 0.393644 4.18528 0.321644 5.87548L1.67164 5.93128ZM2.09464 8.61328C2.09464 9.03358 1.86334 9.40168 1.51594 9.59608L2.17474 10.7751C2.55974 10.5605 2.88043 10.2469 3.10368 9.86688C3.32694 9.48683 3.44465 9.05405 3.44464 8.61328H2.09464ZM0.322544 11.3511C0.394544 13.0395 0.619544 14.3121 1.54564 15.2364L2.49964 14.2806C1.96954 13.7532 1.74184 12.9648 1.67164 11.2944L0.322544 11.3511ZM17.8806 8.61328C17.8806 8.19298 18.1119 7.82488 18.4593 7.63138L17.8005 6.45238C17.4157 6.66692 17.0951 6.98032 16.8718 7.3602C16.6486 7.74007 16.5308 8.17266 16.5306 8.61328H17.8806ZM19.6527 5.87548C19.5807 4.18708 19.3557 2.91448 18.4296 1.99018L17.4756 2.94598C18.0048 3.47338 18.2334 4.26178 18.3036 5.93218L19.6527 5.87548ZM18.4593 9.59608C18.284 9.49871 18.138 9.35625 18.0362 9.18345C17.9345 9.01066 17.8808 8.81381 17.8806 8.61328H16.5306C16.5306 9.54388 17.0445 10.3521 17.8005 10.7742L18.4593 9.59608ZM18.3036 11.2944C18.2334 12.9648 18.0057 13.7532 17.4756 14.2806L18.4296 15.2364C19.3566 14.3121 19.5816 13.0404 19.6527 11.3511L18.3036 11.2944ZM17.8005 10.7742C18.0561 10.9173 18.2235 11.0109 18.336 11.082C18.3918 11.1171 18.417 11.136 18.4242 11.1414C18.4368 11.1522 18.3909 11.1198 18.3477 11.0424L19.5267 10.3827C19.4644 10.2747 19.3823 10.1794 19.2846 10.1019C19.212 10.043 19.1357 9.98888 19.056 9.93988C18.9057 9.84448 18.6996 9.73018 18.4593 9.59518L17.8005 10.7742ZM19.6527 11.3511C19.659 11.1972 19.6662 11.0379 19.6608 10.9047C19.6571 10.7225 19.6109 10.5438 19.5258 10.3827L18.3477 11.0415C18.3027 10.9605 18.309 10.9047 18.3117 10.9641C18.3129 10.9881 18.3129 11.0283 18.3117 11.0847L18.3036 11.2944L19.6527 11.3511ZM18.4593 7.63138C18.6996 7.49638 18.9057 7.38208 19.056 7.28668C19.135 7.23668 19.2113 7.1826 19.2846 7.12468C19.382 7.04708 19.4638 6.95182 19.5258 6.84388L18.3477 6.18508C18.3909 6.10678 18.4368 6.07438 18.4233 6.08518C18.3954 6.10667 18.3663 6.12651 18.336 6.14458C18.2235 6.21658 18.057 6.30928 17.8005 6.45238L18.4593 7.63138ZM18.3036 5.93218L18.3117 6.14098C18.3129 6.19738 18.3129 6.23758 18.3117 6.26158C18.309 6.32098 18.3027 6.26518 18.3477 6.18418L19.5267 6.84298C19.6115 6.68179 19.6574 6.50305 19.6608 6.32098C19.664 6.17212 19.661 6.02319 19.6518 5.87458L18.3036 5.93218ZM1.51594 9.59518C1.27564 9.73018 1.06954 9.84358 0.919244 9.93898C0.839619 9.98798 0.763258 10.0421 0.690644 10.101C0.593305 10.1786 0.511474 10.2747 0.449444 10.3827L1.62754 11.0406C1.58434 11.1189 1.53844 11.1513 1.55104 11.1405C1.55914 11.1342 1.58344 11.1162 1.63924 11.0811C1.75174 11.0091 1.91824 10.9164 2.17474 10.7733L1.51594 9.59518ZM1.67164 11.2935L1.66354 11.0838C1.6622 11.0436 1.6622 11.0034 1.66354 10.9632C1.66624 10.9038 1.67254 10.9596 1.62754 11.0406L0.448544 10.3818C0.363831 10.543 0.317913 10.7217 0.314444 10.9038C0.309044 11.037 0.316244 11.1963 0.323444 11.3502L1.67164 11.2935ZM2.17474 6.45148C1.91914 6.30838 1.75174 6.21478 1.63924 6.14368C1.6087 6.12564 1.57925 6.1058 1.55104 6.08428C1.53844 6.07348 1.58434 6.10588 1.62754 6.18328L0.448544 6.84298C0.524144 6.97618 0.624044 7.06798 0.690644 7.12378C0.762644 7.18318 0.842744 7.23718 0.919244 7.28578C1.06954 7.38118 1.27564 7.49548 1.51594 7.63048L2.17474 6.45148ZM0.321644 5.87548C0.315344 6.02938 0.308144 6.18868 0.313544 6.32188C0.319844 6.45688 0.340544 6.65218 0.448544 6.84388L1.62754 6.18508C1.67254 6.26608 1.66534 6.32188 1.66264 6.26248C1.6613 6.22229 1.6613 6.18207 1.66264 6.14188L1.67074 5.93218L0.321644 5.87548ZM12.4743 4.11148L12.4671 1.85968L11.118 1.86418L11.1243 4.11508L12.4743 4.11148ZM12.7011 4.33828C12.6714 4.33852 12.642 4.33288 12.6145 4.32167C12.587 4.31047 12.562 4.29394 12.5409 4.27302C12.5198 4.2521 12.5031 4.22722 12.4916 4.1998C12.4802 4.17239 12.4743 4.14298 12.4743 4.11328H11.1243C11.1243 4.98448 11.8317 5.68828 12.7011 5.68828V4.33828ZM12.9306 4.11328C12.9306 4.23568 12.8298 4.33828 12.7029 4.33828V5.68828C13.5723 5.68828 14.2806 4.98448 14.2806 4.11328H12.9306ZM12.9306 1.87768V4.11328H14.2806V1.87768H12.9306ZM14.0466 2.10538C16.0158 2.15578 16.8987 2.36818 17.4774 2.94598L18.4314 1.99018C17.4297 0.991182 16.0131 0.805782 14.0808 0.755382L14.0466 2.10538ZM14.2806 1.87768C14.2806 2.00368 14.1762 2.10808 14.0466 2.10538L14.0808 0.755382C13.9311 0.751659 13.7822 0.777938 13.6428 0.83267C13.5034 0.887401 13.3763 0.969479 13.2692 1.07407C13.162 1.17866 13.0768 1.30364 13.0187 1.44165C12.9605 1.57967 12.9306 1.72792 12.9306 1.87768H14.2806ZM11.3421 2.08828C11.2826 2.08804 11.2265 2.06423 11.1845 2.02206C11.1425 1.97989 11.1189 1.9228 11.1189 1.86328L12.4689 1.85968C12.468 1.56194 12.349 1.27671 12.1382 1.06651C11.9273 0.856313 11.6417 0.738281 11.3439 0.738282L11.3421 2.08828ZM14.5461 16.4559C16.2336 16.3839 17.5062 16.1589 18.4305 15.2364L17.4756 14.2806C16.9482 14.808 16.1589 15.0366 14.4903 15.1068L14.5461 16.4559ZM12.9306 13.1133V14.8926H14.2806V13.1133H12.9306ZM11.1207 14.9133C11.1207 15.0222 11.1207 15.1059 11.118 15.177C11.1162 15.249 11.1126 15.2904 11.109 15.3165C11.1054 15.3426 11.1045 15.3336 11.1144 15.3075C11.1319 15.2691 11.156 15.2341 11.1855 15.204L12.1386 16.1598C12.3121 15.9805 12.4205 15.7482 12.4464 15.5001C12.4707 15.3228 12.4689 15.1104 12.4698 14.9178L11.1207 14.9133ZM10.8948 16.4883C11.0874 16.4883 11.3007 16.4901 11.478 16.4658C11.6751 16.4388 11.9262 16.3713 12.1386 16.1598L11.1846 15.204C11.2153 15.1745 11.251 15.1508 11.2899 15.1338C11.3151 15.123 11.3241 15.1248 11.2989 15.1275C11.2523 15.1323 11.2054 15.1353 11.1585 15.1365C11.0865 15.1383 11.0028 15.1383 10.8948 15.1383V16.4883ZM14.4903 15.1068C14.3823 15.1113 14.2986 15.1149 14.2275 15.1158C14.1564 15.1167 14.115 15.1158 14.0907 15.1131C14.0664 15.1104 14.0772 15.1086 14.1042 15.1194C14.1375 15.132 14.1762 15.1554 14.2113 15.1878L13.2771 16.1625C13.4967 16.3731 13.7532 16.4361 13.9584 16.4559C14.1402 16.4739 14.3535 16.464 14.5461 16.4559L14.4903 15.1068ZM12.9306 14.8926C12.9306 15.0888 12.9288 15.3066 12.954 15.4893C12.9819 15.6927 13.0548 15.9492 13.2771 16.1625L14.2113 15.1878C14.2473 15.222 14.2707 15.2607 14.2851 15.2931C14.2959 15.3201 14.2941 15.3291 14.2914 15.3039C14.2865 15.2563 14.2835 15.2086 14.2824 15.1608C14.2806 15.0888 14.2806 15.0033 14.2806 14.8926H12.9306Z"/>
</mask>
<path d="M11.8002 13.1133L12.4752 13.1151V13.1133H11.8002ZM11.8002 4.11328H12.4752V4.11148L11.8002 4.11328ZM12.4698 14.9178L12.4752 13.1151L11.1252 13.1115L11.1198 14.9142L12.4698 14.9178ZM12.702 12.8883C12.8289 12.8883 12.9297 12.9909 12.9297 13.1133H14.2797C14.2797 12.2421 13.5714 11.5383 12.702 11.5383V12.8883ZM12.702 11.5383C11.8326 11.5383 11.1252 12.2421 11.1252 13.1133H12.4752C12.4752 12.9909 12.5751 12.8883 12.702 12.8883V11.5383ZM8.18314 2.08828H11.3421V0.738282H8.18314V2.08828ZM10.8948 15.1383H8.18314V16.4883H10.8948V15.1383ZM8.18314 15.1383C6.46324 15.1383 5.24014 15.1365 4.31314 15.0123C3.40414 14.8908 2.88124 14.6622 2.49874 14.2806L1.54564 15.2373C2.22064 15.9105 3.07744 16.2093 4.13404 16.3515C5.17264 16.491 6.50105 16.4892 8.18405 16.4892L8.18314 15.1383ZM8.18314 0.738282C6.50014 0.738282 5.17174 0.736482 4.13314 0.875982C3.07654 1.01818 2.22064 1.31698 1.54564 1.99018L2.49964 2.94598C2.88124 2.56438 3.40504 2.33578 4.31314 2.21428C5.24014 2.09008 6.46324 2.08828 8.18314 2.08828V0.738282ZM1.51594 7.63138C1.86334 7.82488 2.09464 8.19298 2.09464 8.61328H3.44464C3.44457 8.17275 3.32693 7.74023 3.10384 7.36036C2.88076 6.98048 2.56034 6.66704 2.17564 6.45238L1.51594 7.63138ZM1.67164 5.93128C1.74184 4.26088 1.96954 3.47338 2.49964 2.94598L1.54564 1.99018C0.618644 2.91538 0.393644 4.18528 0.321644 5.87548L1.67164 5.93128ZM2.09464 8.61328C2.09464 9.03358 1.86334 9.40168 1.51594 9.59608L2.17474 10.7751C2.55974 10.5605 2.88043 10.2469 3.10368 9.86688C3.32694 9.48683 3.44465 9.05405 3.44464 8.61328H2.09464ZM0.322544 11.3511C0.394544 13.0395 0.619544 14.3121 1.54564 15.2364L2.49964 14.2806C1.96954 13.7532 1.74184 12.9648 1.67164 11.2944L0.322544 11.3511ZM17.8806 8.61328C17.8806 8.19298 18.1119 7.82488 18.4593 7.63138L17.8005 6.45238C17.4157 6.66692 17.0951 6.98032 16.8718 7.3602C16.6486 7.74007 16.5308 8.17266 16.5306 8.61328H17.8806ZM19.6527 5.87548C19.5807 4.18708 19.3557 2.91448 18.4296 1.99018L17.4756 2.94598C18.0048 3.47338 18.2334 4.26178 18.3036 5.93218L19.6527 5.87548ZM18.4593 9.59608C18.284 9.49871 18.138 9.35625 18.0362 9.18345C17.9345 9.01066 17.8808 8.81381 17.8806 8.61328H16.5306C16.5306 9.54388 17.0445 10.3521 17.8005 10.7742L18.4593 9.59608ZM18.3036 11.2944C18.2334 12.9648 18.0057 13.7532 17.4756 14.2806L18.4296 15.2364C19.3566 14.3121 19.5816 13.0404 19.6527 11.3511L18.3036 11.2944ZM17.8005 10.7742C18.0561 10.9173 18.2235 11.0109 18.336 11.082C18.3918 11.1171 18.417 11.136 18.4242 11.1414C18.4368 11.1522 18.3909 11.1198 18.3477 11.0424L19.5267 10.3827C19.4644 10.2747 19.3823 10.1794 19.2846 10.1019C19.212 10.043 19.1357 9.98888 19.056 9.93988C18.9057 9.84448 18.6996 9.73018 18.4593 9.59518L17.8005 10.7742ZM19.6527 11.3511C19.659 11.1972 19.6662 11.0379 19.6608 10.9047C19.6571 10.7225 19.6109 10.5438 19.5258 10.3827L18.3477 11.0415C18.3027 10.9605 18.309 10.9047 18.3117 10.9641C18.3129 10.9881 18.3129 11.0283 18.3117 11.0847L18.3036 11.2944L19.6527 11.3511ZM18.4593 7.63138C18.6996 7.49638 18.9057 7.38208 19.056 7.28668C19.135 7.23668 19.2113 7.1826 19.2846 7.12468C19.382 7.04708 19.4638 6.95182 19.5258 6.84388L18.3477 6.18508C18.3909 6.10678 18.4368 6.07438 18.4233 6.08518C18.3954 6.10667 18.3663 6.12651 18.336 6.14458C18.2235 6.21658 18.057 6.30928 17.8005 6.45238L18.4593 7.63138ZM18.3036 5.93218L18.3117 6.14098C18.3129 6.19738 18.3129 6.23758 18.3117 6.26158C18.309 6.32098 18.3027 6.26518 18.3477 6.18418L19.5267 6.84298C19.6115 6.68179 19.6574 6.50305 19.6608 6.32098C19.664 6.17212 19.661 6.02319 19.6518 5.87458L18.3036 5.93218ZM1.51594 9.59518C1.27564 9.73018 1.06954 9.84358 0.919244 9.93898C0.839619 9.98798 0.763258 10.0421 0.690644 10.101C0.593305 10.1786 0.511474 10.2747 0.449444 10.3827L1.62754 11.0406C1.58434 11.1189 1.53844 11.1513 1.55104 11.1405C1.55914 11.1342 1.58344 11.1162 1.63924 11.0811C1.75174 11.0091 1.91824 10.9164 2.17474 10.7733L1.51594 9.59518ZM1.67164 11.2935L1.66354 11.0838C1.6622 11.0436 1.6622 11.0034 1.66354 10.9632C1.66624 10.9038 1.67254 10.9596 1.62754 11.0406L0.448544 10.3818C0.363831 10.543 0.317913 10.7217 0.314444 10.9038C0.309044 11.037 0.316244 11.1963 0.323444 11.3502L1.67164 11.2935ZM2.17474 6.45148C1.91914 6.30838 1.75174 6.21478 1.63924 6.14368C1.6087 6.12564 1.57925 6.1058 1.55104 6.08428C1.53844 6.07348 1.58434 6.10588 1.62754 6.18328L0.448544 6.84298C0.524144 6.97618 0.624044 7.06798 0.690644 7.12378C0.762644 7.18318 0.842744 7.23718 0.919244 7.28578C1.06954 7.38118 1.27564 7.49548 1.51594 7.63048L2.17474 6.45148ZM0.321644 5.87548C0.315344 6.02938 0.308144 6.18868 0.313544 6.32188C0.319844 6.45688 0.340544 6.65218 0.448544 6.84388L1.62754 6.18508C1.67254 6.26608 1.66534 6.32188 1.66264 6.26248C1.6613 6.22229 1.6613 6.18207 1.66264 6.14188L1.67074 5.93218L0.321644 5.87548ZM12.4743 4.11148L12.4671 1.85968L11.118 1.86418L11.1243 4.11508L12.4743 4.11148ZM12.7011 4.33828C12.6714 4.33852 12.642 4.33288 12.6145 4.32167C12.587 4.31047 12.562 4.29394 12.5409 4.27302C12.5198 4.2521 12.5031 4.22722 12.4916 4.1998C12.4802 4.17239 12.4743 4.14298 12.4743 4.11328H11.1243C11.1243 4.98448 11.8317 5.68828 12.7011 5.68828V4.33828ZM12.9306 4.11328C12.9306 4.23568 12.8298 4.33828 12.7029 4.33828V5.68828C13.5723 5.68828 14.2806 4.98448 14.2806 4.11328H12.9306ZM12.9306 1.87768V4.11328H14.2806V1.87768H12.9306ZM14.0466 2.10538C16.0158 2.15578 16.8987 2.36818 17.4774 2.94598L18.4314 1.99018C17.4297 0.991182 16.0131 0.805782 14.0808 0.755382L14.0466 2.10538ZM14.2806 1.87768C14.2806 2.00368 14.1762 2.10808 14.0466 2.10538L14.0808 0.755382C13.9311 0.751659 13.7822 0.777938 13.6428 0.83267C13.5034 0.887401 13.3763 0.969479 13.2692 1.07407C13.162 1.17866 13.0768 1.30364 13.0187 1.44165C12.9605 1.57967 12.9306 1.72792 12.9306 1.87768H14.2806ZM11.3421 2.08828C11.2826 2.08804 11.2265 2.06423 11.1845 2.02206C11.1425 1.97989 11.1189 1.9228 11.1189 1.86328L12.4689 1.85968C12.468 1.56194 12.349 1.27671 12.1382 1.06651C11.9273 0.856313 11.6417 0.738281 11.3439 0.738282L11.3421 2.08828ZM14.5461 16.4559C16.2336 16.3839 17.5062 16.1589 18.4305 15.2364L17.4756 14.2806C16.9482 14.808 16.1589 15.0366 14.4903 15.1068L14.5461 16.4559ZM12.9306 13.1133V14.8926H14.2806V13.1133H12.9306ZM11.1207 14.9133C11.1207 15.0222 11.1207 15.1059 11.118 15.177C11.1162 15.249 11.1126 15.2904 11.109 15.3165C11.1054 15.3426 11.1045 15.3336 11.1144 15.3075C11.1319 15.2691 11.156 15.2341 11.1855 15.204L12.1386 16.1598C12.3121 15.9805 12.4205 15.7482 12.4464 15.5001C12.4707 15.3228 12.4689 15.1104 12.4698 14.9178L11.1207 14.9133ZM10.8948 16.4883C11.0874 16.4883 11.3007 16.4901 11.478 16.4658C11.6751 16.4388 11.9262 16.3713 12.1386 16.1598L11.1846 15.204C11.2153 15.1745 11.251 15.1508 11.2899 15.1338C11.3151 15.123 11.3241 15.1248 11.2989 15.1275C11.2523 15.1323 11.2054 15.1353 11.1585 15.1365C11.0865 15.1383 11.0028 15.1383 10.8948 15.1383V16.4883ZM14.4903 15.1068C14.3823 15.1113 14.2986 15.1149 14.2275 15.1158C14.1564 15.1167 14.115 15.1158 14.0907 15.1131C14.0664 15.1104 14.0772 15.1086 14.1042 15.1194C14.1375 15.132 14.1762 15.1554 14.2113 15.1878L13.2771 16.1625C13.4967 16.3731 13.7532 16.4361 13.9584 16.4559C14.1402 16.4739 14.3535 16.464 14.5461 16.4559L14.4903 15.1068ZM12.9306 14.8926C12.9306 15.0888 12.9288 15.3066 12.954 15.4893C12.9819 15.6927 13.0548 15.9492 13.2771 16.1625L14.2113 15.1878C14.2473 15.222 14.2707 15.2607 14.2851 15.2931C14.2959 15.3201 14.2941 15.3291 14.2914 15.3039C14.2865 15.2563 14.2835 15.2086 14.2824 15.1608C14.2806 15.0888 14.2806 15.0033 14.2806 14.8926H12.9306Z" fill="black" fill-opacity="0.5"/>
<path d="M19.6527 11.3511L19.6342 11.8007L19.6716 10.9015L19.6527 11.3511ZM14.0808 0.755382L14.5307 0.766779L13.631 0.743386L14.0808 0.755382ZM14.5461 16.4559L14.0965 16.4745L14.9958 16.4373L14.5461 16.4559ZM11.796 14.466L11.121 14.4642L11.1186 15.3642L11.7936 15.366L11.796 14.466ZM1.70415 14.4406L1.22715 14.9185L1.86414 15.5543L2.34114 15.0764L1.70415 14.4406ZM2.34114 2.15018L1.86414 1.67228L1.22715 2.30808L1.70415 2.78598L2.34114 2.15018ZM1.45251 6.82238L1.12311 7.41188L1.90878 7.85089L2.23818 7.26139L1.45251 6.82238ZM1.01613 5.45377L0.341128 5.42587L0.30396 6.3251L0.97896 6.353L1.01613 5.45377ZM2.23818 9.96518L1.90878 9.37568L1.12311 9.81469L1.45251 10.4042L2.23818 9.96518ZM1.01675 11.7728L1.69085 11.744L1.65244 10.8448L0.978336 10.8736L1.01675 11.7728ZM17.7371 7.26139L18.0665 7.85089L18.8522 7.41188L18.5228 6.82238L17.7371 7.26139ZM18.9963 6.353L19.6713 6.3251L19.6342 5.42587L18.9592 5.45377L18.9963 6.353ZM18.2711 2.78598L18.7481 2.30808L18.1111 1.67228L17.6341 2.15018L18.2711 2.78598ZM17.7371 9.96518L17.4077 10.5547L18.1934 10.9937L18.5228 10.4042L17.7371 9.96518ZM18.9592 11.7728L19.6342 11.8007L19.6713 10.9015L18.9963 10.8736L18.9592 11.7728ZM17.6341 15.0764L18.1111 15.5543L18.7481 14.9185L18.2711 14.4406L17.6341 15.0764ZM19.157 11.1048L19.7456 10.7754L19.3061 9.98999L18.7175 10.3194L19.157 11.1048ZM18.7175 6.90717L19.3061 7.23657L19.7456 6.45119L19.157 6.12179L18.7175 6.90717ZM1.25781 10.3194L0.669206 9.98999L0.229682 10.7754L0.818282 11.1048L1.25781 10.3194ZM1.25755 6.90731L1.84705 6.57791L1.40804 5.79225L0.818538 6.12165L1.25755 6.90731ZM11.7918 1.41238L11.1168 1.41418L11.1192 2.31418L11.7942 2.31238L11.7918 1.41238ZM14.5127 1.44238L14.5307 0.767378L13.631 0.743386L13.613 1.41839L14.5127 1.44238ZM14.0686 15.7995L14.0965 16.4745L14.9958 16.4373L14.9679 15.7623L14.0686 15.7995ZM11.9801 15.364L11.5031 14.8861L10.8661 15.5219L11.3431 15.9998L11.9801 15.364ZM12.252 11.5383V12.8883H13.152V11.5383H12.252ZM7.73314 0.738282V2.08828H8.63314V0.738282H7.73314ZM11.3448 16.4883V15.1383H10.4448V16.4883H11.3448ZM1.22715 2.30808L2.18115 3.26388L2.81814 2.62808L1.86414 1.67228L1.22715 2.30808ZM2.09464 9.06328H3.44464V8.16328H2.09464V9.06328ZM18.8522 7.41188L18.1934 6.23288L17.4077 6.67189L18.0665 7.85089L18.8522 7.41188ZM16.5306 9.06328H17.8806V8.16328H16.5306V9.06328ZM19.6716 10.9015L18.3225 10.8448L18.2847 11.744L19.6339 11.8007L19.6716 10.9015ZM14.2806 3.66328H12.9306V4.56328H14.2806V3.66328ZM14.2806 1.42768H12.9306V2.32768H14.2806V1.42768ZM13.631 0.743986L13.5968 2.09399L14.4965 2.11678L14.5307 0.766779L13.631 0.743986ZM14.0407 15.1254L14.0965 16.4745L14.9958 16.4373L14.94 15.0882L14.0407 15.1254ZM12.9306 15.3426H14.2806V14.4426H12.9306V15.3426ZM13.8865 14.8764L12.9523 15.8511L13.602 16.4739L14.5362 15.4992L13.8865 14.8764ZM11.1198 14.9142L10.2198 14.9115L10.2172 15.8118L11.1174 15.8142L11.1198 14.9142ZM11.8002 13.1133V12.2133L11.7978 14.0133L11.8002 13.1133ZM12.4752 13.1151L13.3752 13.1178V13.1151H12.4752ZM1.54564 15.2364L0.909867 15.8734L1.54686 16.5092L2.18264 15.8722L1.54564 15.2364ZM1.54564 1.99018L0.910098 1.35294L0.909867 1.35317L1.54564 1.99018ZM1.51594 7.63138L0.730535 7.19191L0.290212 7.97885L1.078 8.41764L1.51594 7.63138ZM1.51594 9.59518L2.30147 9.15591L1.86133 8.36884L1.07513 8.81053L1.51594 9.59518ZM1.67164 11.2944L2.57085 11.2566L2.53306 10.3574L1.63385 10.3952L1.67164 11.2944ZM18.4593 7.63138L18.8973 8.41765L18.9002 8.41604L18.4593 7.63138ZM19.6527 5.87548L19.6905 6.77469L20.5903 6.73687L20.5519 5.83714L19.6527 5.87548ZM18.4296 1.99018L19.0654 1.35317L18.4284 0.71741L17.7926 1.35439L18.4296 1.99018ZM19.6527 11.3511L20.552 11.3889L20.552 11.3879L19.6527 11.3511ZM18.4296 15.2364L17.7926 15.8722L18.4281 16.5088L19.0651 15.8737L18.4296 15.2364ZM19.5258 10.3827L20.3218 9.96263L19.8914 9.14709L19.0866 9.59716L19.5258 10.3827ZM19.5258 6.84388L20.3062 7.29234L20.7599 6.50282L19.9651 6.05836L19.5258 6.84388ZM0.449444 10.3827L-0.330868 9.93423L-0.784883 10.7242L0.0106337 11.1685L0.449444 10.3827ZM1.62754 6.18508L2.41429 5.748L1.97613 4.95932L1.18853 5.39942L1.62754 6.18508ZM11.8002 4.11328L11.7978 3.21329L11.8002 5.01328V4.11328ZM12.4752 4.11328V5.01328H13.3752V4.11328H12.4752ZM12.4752 4.11148H13.3752V3.20908L12.4728 3.21149L12.4752 4.11148ZM11.118 1.86418L11.115 0.964187L10.2155 0.967188L10.218 1.8667L11.118 1.86418ZM14.0808 0.755382L14.1043 -0.144312L14.1032 -0.144339L14.0808 0.755382ZM14.5461 16.4559L14.584 17.3551L14.5845 17.3551L14.5461 16.4559ZM11.1846 15.204L10.5616 14.5545L9.89916 15.1901L10.5476 15.8398L11.1846 15.204ZM12.4698 14.9178L13.3698 14.922L13.3698 14.9205L12.4698 14.9178ZM11.1252 13.1115L11.1276 12.2115L10.2279 12.2091L10.2252 13.1088L11.1252 13.1115ZM12.9297 13.1133H12.0297V14.0133H12.9297V13.1133ZM14.2797 13.1133V14.0133H15.1797V13.1133H14.2797ZM11.1252 13.1133H10.2252V14.0133H11.1252V13.1133ZM11.3421 2.08828V2.98828H12.2409L12.2421 2.08948L11.3421 2.08828ZM11.3421 0.738282H12.2421V-0.161718H11.3421V0.738282ZM8.18314 16.4883H7.28314V17.3883H8.18314V16.4883ZM4.31314 15.0123L4.43266 14.1203L4.43238 14.1202L4.31314 15.0123ZM2.49874 14.2806L3.13439 13.6434L2.49679 13.0073L1.86115 13.6454L2.49874 14.2806ZM1.54564 15.2373L0.908049 14.6021L0.273204 15.2393L0.910098 15.8745L1.54564 15.2373ZM4.13404 16.3515L4.014 17.2434L4.01424 17.2435L4.13404 16.3515ZM8.18405 16.4892V17.3892H9.08465L9.08404 16.4886L8.18405 16.4892ZM4.13314 0.875982L4.01334 -0.0160074L4.0131 -0.015976L4.13314 0.875982ZM2.49964 2.94598L3.13442 3.584L3.13604 3.58238L2.49964 2.94598ZM4.31314 2.21428L4.4325 3.10633L4.43266 3.10631L4.31314 2.21428ZM3.44464 8.61328L4.34464 8.61328V8.61314L3.44464 8.61328ZM2.17564 6.45238L2.61419 5.66646L1.82919 5.22843L1.39024 6.01291L2.17564 6.45238ZM1.67164 5.93128L1.63448 6.83051L2.53309 6.86766L2.57085 5.96907L1.67164 5.93128ZM0.321644 5.87548L-0.577542 5.83718L-0.577603 5.83867L0.321644 5.87548ZM1.51594 9.59608L1.07645 8.81069L0.291537 9.24991L0.73028 10.0351L1.51594 9.59608ZM2.17474 10.7751L1.38908 11.2141L1.82765 11.999L2.61296 11.5612L2.17474 10.7751ZM0.322544 11.3511L0.284753 10.4519L-0.615007 10.4897L-0.576639 11.3894L0.322544 11.3511ZM2.49964 14.2806L3.13664 14.9164L3.77346 14.2784L3.13441 13.6426L2.49964 14.2806ZM17.8806 8.61328H16.9806V8.6138L17.8806 8.61328ZM17.8005 6.45238L18.2388 7.23849L18.239 7.23834L17.8005 6.45238ZM16.5306 8.61328L15.6306 8.61296V8.61328H16.5306ZM17.4756 2.94598L16.8386 2.31019L16.2024 2.94767L16.8403 3.58346L17.4756 2.94598ZM18.4593 9.59608L19.2449 10.0353L19.6854 9.2476L18.8964 8.80932L18.4593 9.59608ZM18.3036 11.2944L19.2029 11.3322L19.203 11.3291L18.3036 11.2944ZM17.4756 14.2806L16.8409 13.6426L16.8392 13.6442L17.4756 14.2806ZM18.336 11.082L17.8552 11.8428L17.8568 11.8438L18.336 11.082ZM18.4242 11.1414L19.01 10.4581L18.9877 10.439L18.9642 10.4214L18.4242 11.1414ZM18.3477 11.0424L17.9083 10.257L17.1237 10.696L17.5619 11.481L18.3477 11.0424ZM19.5267 10.3827L19.9662 11.1681L20.7619 10.7229L20.3064 9.93302L19.5267 10.3827ZM19.2846 10.1019L18.7177 10.8009L18.7251 10.8068L19.2846 10.1019ZM19.056 9.93988L18.5737 10.6998L18.5844 10.7064L19.056 9.93988ZM18.4593 9.59518L18.9002 8.81053L18.1137 8.3687L17.6737 9.15617L18.4593 9.59518ZM19.6608 10.9047L18.761 10.9232L18.7612 10.9322L18.7616 10.9411L19.6608 10.9047ZM18.3477 11.0415L17.561 11.4786L17.9993 12.2675L18.787 11.827L18.3477 11.0415ZM18.3117 10.9641L17.4127 11.0049L17.4129 11.009L18.3117 10.9641ZM18.3117 11.0847L19.2111 11.1194L19.2114 11.1116L19.2115 11.1038L18.3117 11.0847ZM19.056 7.28668L18.5745 6.52636L18.5737 6.52683L19.056 7.28668ZM19.2846 7.12468L19.8424 7.83101L19.8457 7.82841L19.2846 7.12468ZM18.3477 6.18508L17.5597 5.75031L17.1274 6.53384L17.9085 6.9706L18.3477 6.18508ZM18.4233 6.08518L18.9724 6.79829L18.979 6.79319L18.9856 6.78796L18.4233 6.08518ZM18.336 6.14458L17.8743 5.37207L17.8625 5.37913L17.8509 5.38654L18.336 6.14458ZM18.3117 6.14098L19.2115 6.12184L19.2114 6.11396L19.2111 6.10609L18.3117 6.14098ZM18.3117 6.26158L17.4129 6.21664L17.4127 6.22072L18.3117 6.26158ZM18.3477 6.18418L18.7868 5.39852L17.9992 4.95842L17.561 5.7471L18.3477 6.18418ZM19.5267 6.84298L19.0877 7.62865L19.8938 8.07909L20.3234 7.26167L19.5267 6.84298ZM19.6608 6.32098L18.761 6.30191L18.761 6.30384L19.6608 6.32098ZM19.6518 5.87458L20.5501 5.81926L20.4958 4.9377L19.6134 4.9754L19.6518 5.87458ZM0.919244 9.93898L1.39095 10.7056L1.40155 10.6988L0.919244 9.93898ZM0.690644 10.101L1.2517 10.8047L1.25755 10.8L0.690644 10.101ZM1.55104 11.1405L0.998498 10.4301L0.981592 10.4432L0.965332 10.4572L1.55104 11.1405ZM1.63924 11.0811L2.11846 11.8429L2.12439 11.8391L1.63924 11.0811ZM2.17474 10.7733L2.61323 11.5592L3.39997 11.1203L2.96027 10.334L2.17474 10.7733ZM1.67164 11.2935L1.70946 12.1927L2.60559 12.155L2.57097 11.2587L1.67164 11.2935ZM1.66354 11.0838L0.764038 11.1139L0.764215 11.1185L1.66354 11.0838ZM1.66354 10.9632L0.764409 10.9223L0.764049 10.933L1.66354 10.9632ZM0.448544 10.3818L0.887556 9.59612L0.081443 9.14568L-0.348139 9.9631L0.448544 10.3818ZM0.314444 10.9038L1.21371 10.9402L1.2141 10.9306L1.21428 10.9209L0.314444 10.9038ZM0.323444 11.3502L-0.575573 11.3922L-0.533711 12.287L0.361262 12.2494L0.323444 11.3502ZM2.17474 6.45148L2.96041 6.89049L3.39906 6.10548L2.6144 5.66618L2.17474 6.45148ZM1.63924 6.14368L2.12007 5.38289L2.10864 5.37567L2.09701 5.36879L1.63924 6.14368ZM1.55104 6.08428L0.965332 6.76761L0.98475 6.78426L1.00508 6.79977L1.55104 6.08428ZM1.62754 6.18328L2.06701 6.96869L2.85158 6.52969L2.41342 5.74465L1.62754 6.18328ZM0.448544 6.84298L0.00907513 6.05757L-0.781132 6.49973L-0.334173 7.28723L0.448544 6.84298ZM0.690644 7.12378L0.11263 7.81367L0.1179 7.81802L0.690644 7.12378ZM0.919244 7.28578L0.436635 8.04544L0.43694 8.04564L0.919244 7.28578ZM1.51594 7.63048L1.07513 8.41514L1.86159 8.85697L2.30161 8.06949L1.51594 7.63048ZM0.313544 6.32188L-0.585734 6.35834L-0.585477 6.36384L0.313544 6.32188ZM0.448544 6.84388L-0.335579 7.28564L0.104637 8.06703L0.887557 7.62955L0.448544 6.84388ZM1.66264 6.26248L0.763086 6.29263L0.763573 6.30335L1.66264 6.26248ZM1.66264 6.14188L0.763303 6.10714L0.763149 6.11173L1.66264 6.14188ZM1.67074 5.93218L2.57007 5.96692L2.60469 5.07064L1.70854 5.03298L1.67074 5.93218ZM12.4743 4.11148L12.4767 5.01148L13.3772 5.00908L13.3743 4.1086L12.4743 4.11148ZM12.4671 1.85968L13.3671 1.8568L13.3643 0.956685L12.4641 0.959687L12.4671 1.85968ZM11.1243 4.11508L10.2243 4.1176L10.2269 5.01748L11.1267 5.01508L11.1243 4.11508ZM12.7011 4.33828H13.6011V3.43105L12.6939 3.43831L12.7011 4.33828ZM12.4743 4.11328L13.3743 4.11331L13.3744 3.21328H12.4743V4.11328ZM11.1243 4.11328V3.21328H10.2243V4.11328H11.1243ZM12.7011 5.68828V6.58828H13.6011V5.68828H12.7011ZM12.7029 4.33828V3.43828H11.8029V4.33828H12.7029ZM12.7029 5.68828H11.8029V6.58828H12.7029V5.68828ZM12.9306 1.87768H13.8306V1.8774L12.9306 1.87768ZM14.0466 2.10538L14.0654 1.20558L14.0236 3.00509L14.0466 2.10538ZM17.4774 2.94598L16.8415 3.58287L17.4785 4.21888L18.1144 3.58178L17.4774 2.94598ZM18.4314 1.99018L19.0684 2.62598L19.7045 1.98872L19.067 1.35293L18.4314 1.99018ZM11.1189 1.86328L11.1165 0.963286L10.219 0.965679L10.2189 1.86328L11.1189 1.86328ZM12.4689 1.85968L12.4713 2.75968L13.3718 2.75728L13.3689 1.8568L12.4689 1.85968ZM11.3439 0.738282L11.3439 -0.161718L10.4451 -0.161713L10.4439 0.737082L11.3439 0.738282ZM18.4305 15.2364L19.0663 15.8734L19.7037 15.2373L19.0672 14.6003L18.4305 15.2364ZM14.4903 15.1068L14.5278 16.006L14.5282 16.006L14.4903 15.1068ZM12.9306 13.1133V12.2133H12.0306V13.1133H12.9306ZM14.2806 13.1133H15.1806V12.2133H14.2806V13.1133ZM11.1207 14.9133L11.1237 14.0133L10.2207 14.0103V14.9133H11.1207ZM11.118 15.177L10.2186 15.1428L10.2183 15.1545L11.118 15.177ZM11.1144 15.3075L10.2951 14.9351L10.2832 14.9613L10.2729 14.9883L11.1144 15.3075ZM11.1855 15.204L11.8228 14.5685L11.1812 13.925L10.544 14.5728L11.1855 15.204ZM12.1386 16.1598L12.7737 16.7975L12.7797 16.7916L12.7855 16.7855L12.1386 16.1598ZM12.4464 15.5001L11.5548 15.3779L11.5528 15.3921L11.5513 15.4064L12.4464 15.5001ZM11.478 16.4658L11.3559 15.5741L11.3558 15.5741L11.478 16.4658ZM11.2899 15.1338L10.9354 14.3065L10.9301 14.3088L11.2899 15.1338ZM11.2989 15.1275L11.3916 16.0227L11.3948 16.0224L11.2989 15.1275ZM11.1585 15.1365L11.1361 14.2368L11.1361 14.2368L11.1585 15.1365ZM14.1042 15.1194L13.77 15.955L13.7778 15.9581L13.7857 15.9611L14.1042 15.1194ZM14.2113 15.1878L14.8313 14.5352L14.8218 14.5265L14.2113 15.1878ZM13.2771 16.1625L12.654 16.8119L12.6542 16.812L13.2771 16.1625ZM13.9584 16.4559L14.0471 15.5603L14.0449 15.56L13.9584 16.4559ZM12.954 15.4893L13.8457 15.367L13.8456 15.3663L12.954 15.4893ZM14.2851 15.2931L15.1208 14.9588L15.1145 14.9431L15.1076 14.9276L14.2851 15.2931ZM14.2914 15.3039L13.3962 15.3961L13.3966 15.3998L14.2914 15.3039ZM14.2824 15.1608L15.1822 15.1401L15.1822 15.1383L14.2824 15.1608ZM11.7978 14.0133L12.4728 14.0151L12.4776 12.2151L11.8026 12.2133L11.7978 14.0133ZM13.3752 13.1151V13.1133H11.5752V13.1151H13.3752ZM12.4752 12.2133H11.8002V14.0133H12.4752V12.2133ZM11.8002 5.01328H12.4752V3.21328H11.8002V5.01328ZM13.3752 4.11328V4.11148H11.5752V4.11328H13.3752ZM12.4728 3.21149L11.7978 3.21329L11.8026 5.01328L12.4776 5.01148L12.4728 3.21149ZM13.3698 14.9205L13.3752 13.1178L11.5752 13.1124L11.5698 14.9151L13.3698 14.9205ZM12.4776 12.2151L11.1276 12.2115L11.1228 14.0115L12.4728 14.0151L12.4776 12.2151ZM10.2252 13.1088L10.2198 14.9115L12.0198 14.9169L12.0252 13.1142L10.2252 13.1088ZM11.1174 15.8142L12.4674 15.8178L12.4722 14.0178L11.1222 14.0142L11.1174 15.8142ZM12.702 13.7883C12.3342 13.7883 12.0297 13.4903 12.0297 13.1133H13.8297C13.8297 12.4915 13.3237 11.9883 12.702 11.9883V13.7883ZM12.9297 14.0133H14.2797V12.2133H12.9297V14.0133ZM15.1797 13.1133C15.1797 11.7424 14.0658 10.6383 12.702 10.6383V12.4383C13.0771 12.4383 13.3797 12.7418 13.3797 13.1133H15.1797ZM12.702 10.6383C11.3376 10.6383 10.2252 11.743 10.2252 13.1133H12.0252C12.0252 12.7411 12.3277 12.4383 12.702 12.4383V10.6383ZM11.1252 14.0133H12.4752V12.2133H11.1252V14.0133ZM13.3752 13.1133C13.3752 13.4856 13.0745 13.7883 12.702 13.7883V11.9883C12.0758 11.9883 11.5752 12.4962 11.5752 13.1133H13.3752ZM8.18314 2.98828H11.3421V1.18828H8.18314V2.98828ZM12.2421 2.08828V0.738282H10.4421V2.08828H12.2421ZM11.3421 -0.161718H8.18314V1.63828H11.3421V-0.161718ZM10.8948 14.2383H8.18314V16.0383H10.8948V14.2383ZM7.28314 15.1383V16.4883H9.08315V15.1383H7.28314ZM8.18314 17.3883H10.8948V15.5883H8.18314V17.3883ZM8.18314 14.2383C6.43778 14.2383 5.28597 14.2346 4.43266 14.1203L4.19363 15.9043C5.19431 16.0384 6.48871 16.0383 8.18314 16.0383V14.2383ZM4.43238 14.1202C3.62382 14.0121 3.32202 13.8306 3.13439 13.6434L1.8631 14.9177C2.44047 15.4937 3.18447 15.7694 4.19391 15.9043L4.43238 14.1202ZM1.86115 13.6454L0.908049 14.6021L2.18324 15.8725L3.13634 14.9158L1.86115 13.6454ZM0.910098 15.8745C1.78045 16.7426 2.85879 17.088 4.014 17.2434L4.25409 15.4595C3.29609 15.3306 2.66084 15.0784 2.18119 14.6L0.910098 15.8745ZM4.01424 17.2435C5.12665 17.3929 6.52635 17.3892 8.18405 17.3892V15.5892C6.47574 15.5892 5.21864 15.5891 4.25385 15.4595L4.01424 17.2435ZM9.08404 16.4886L9.08314 15.1377L7.28314 15.1389L7.28405 16.4898L9.08404 16.4886ZM8.18314 -0.161718C6.52545 -0.161718 5.12575 -0.165422 4.01334 -0.0160074L4.25295 1.76797C5.21774 1.63839 6.47484 1.63828 8.18314 1.63828V-0.161718ZM4.0131 -0.015976C2.85762 0.139532 1.78032 0.485035 0.910098 1.35294L2.18119 2.62743C2.66097 2.14893 3.29547 1.89683 4.25319 1.76794L4.0131 -0.015976ZM3.13604 3.58238C3.32229 3.39613 3.62417 3.21448 4.4325 3.10633L4.19379 1.32223C3.18592 1.45708 2.4402 1.73263 1.86325 2.30959L3.13604 3.58238ZM4.43266 3.10631C5.28597 2.99198 6.43778 2.98828 8.18314 2.98828V1.18828C6.48871 1.18828 5.19431 1.18818 4.19363 1.32225L4.43266 3.10631ZM1.078 8.41764C1.15134 8.45849 1.19464 8.53207 1.19464 8.61328H2.99464C2.99464 7.85389 2.57535 7.19127 1.95389 6.84512L1.078 8.41764ZM4.34464 8.61314C4.34455 8.01242 4.18412 7.42261 3.87992 6.9046L2.32777 7.81611C2.46973 8.05784 2.5446 8.33309 2.54464 8.61342L4.34464 8.61314ZM3.87992 6.9046C3.57572 6.3866 3.13877 5.95917 2.61419 5.66646L1.7371 7.23831C1.9819 7.37491 2.18581 7.57437 2.32777 7.81611L3.87992 6.9046ZM1.39024 6.01291L0.730535 7.19191L2.30135 8.07085L2.96105 6.89185L1.39024 6.01291ZM2.57085 5.96907C2.6406 4.30933 2.87068 3.84639 3.13441 3.584L1.86488 2.30796C1.06841 3.10038 0.843086 4.21244 0.772438 5.89349L2.57085 5.96907ZM0.909867 1.35317C-0.281533 2.54225 -0.504992 4.1341 -0.57754 5.83718L1.22083 5.91379C1.29228 4.23646 1.51882 3.28851 2.18142 2.6272L0.909867 1.35317ZM0.284476 6.77471L1.63448 6.83051L1.70881 5.03205L0.358813 4.97625L0.284476 6.77471ZM1.19464 8.61328C1.19464 8.69418 1.1515 8.76869 1.07645 8.81069L1.95544 10.3815C2.57519 10.0347 2.99464 9.37298 2.99464 8.61328H1.19464ZM0.73028 10.0351L1.38908 11.2141L2.96041 10.3361L2.30161 9.15707L0.73028 10.0351ZM2.61296 11.5612C3.13795 11.2685 3.57526 10.841 3.8797 10.3227L2.32767 9.41103C2.1856 9.65288 1.98152 9.8524 1.73653 9.98897L2.61296 11.5612ZM3.8797 10.3227C4.18413 9.80448 4.34465 9.21433 4.34464 8.61328L2.54464 8.61328C2.54464 8.89377 2.46974 9.16918 2.32767 9.41103L3.8797 10.3227ZM-0.576639 11.3894C-0.504114 13.0901 -0.280806 14.685 0.909867 15.8734L2.18142 14.5994C1.51989 13.9391 1.2932 12.9888 1.22173 11.3127L-0.576639 11.3894ZM2.18264 15.8722L3.13664 14.9164L1.86265 13.6448L0.908649 14.6006L2.18264 15.8722ZM3.13441 13.6426C2.87075 13.3802 2.64061 12.9165 2.57085 11.2566L0.772438 11.3322C0.843077 13.013 1.06833 14.1261 1.86488 14.9186L3.13441 13.6426ZM1.63385 10.3952L0.284753 10.4519L0.360336 12.2503L1.70944 12.1936L1.63385 10.3952ZM18.7806 8.61328C18.7806 8.53207 18.8239 8.45849 18.8973 8.41764L18.0214 6.84512C17.3999 7.19127 16.9806 7.85389 16.9806 8.61328H18.7806ZM17.3623 5.66628C16.8375 5.95883 16.4003 6.38619 16.0959 6.9042L17.6478 7.81619C17.7898 7.57445 17.9939 7.37502 18.2388 7.23849L17.3623 5.66628ZM16.0959 6.9042C15.7915 7.42222 15.6309 8.01211 15.6306 8.61296L17.4306 8.61361C17.4307 8.33321 17.5057 8.05793 17.6478 7.81619L16.0959 6.9042ZM20.5519 5.83714C20.4794 4.13643 20.2561 2.54153 19.0654 1.35317L17.7939 2.6272C18.4554 3.28744 18.6821 4.23773 18.7536 5.91383L20.5519 5.83714ZM17.7926 1.35439L16.8386 2.31019L18.1126 3.58178L19.0666 2.62598L17.7926 1.35439ZM16.8403 3.58346C17.1039 3.84615 17.3347 4.31087 17.4044 5.96997L19.2029 5.89439C19.1322 4.2127 18.9058 3.10061 18.111 2.3085L16.8403 3.58346ZM18.3414 6.83139L19.6905 6.77469L19.615 4.97628L18.2659 5.03298L18.3414 6.83139ZM18.8964 8.80932C18.8613 8.78984 18.8321 8.76135 18.8118 8.72679L17.2607 9.64011C17.4438 9.95114 17.7068 10.2076 18.0223 10.3828L18.8964 8.80932ZM18.8118 8.72679C18.7914 8.69223 18.7807 8.65286 18.7806 8.61276L16.9806 8.6138C16.9809 8.97475 17.0775 9.32908 17.2607 9.64011L18.8118 8.72679ZM15.6306 8.61328C15.6306 9.88413 16.3335 10.9859 17.3618 11.56L18.2393 9.98837C17.7556 9.71829 17.4306 9.20363 17.4306 8.61328H15.6306ZM18.5861 11.2134L19.2449 10.0353L17.6738 9.15681L17.015 10.3349L18.5861 11.2134ZM17.4044 11.2566C17.3347 12.9165 17.1045 13.3802 16.8409 13.6426L18.1104 14.9186C18.907 14.1261 19.1322 13.013 19.2029 11.3322L17.4044 11.2566ZM16.8386 14.9164L17.7926 15.8722L19.0666 14.6006L18.1126 13.6448L16.8386 14.9164ZM19.0651 15.8737C20.2571 14.6852 20.4803 13.091 20.552 11.3889L18.7535 11.3132C18.683 12.9898 18.4562 13.9389 17.7942 14.5991L19.0651 15.8737ZM17.3609 11.5595C17.628 11.709 17.7684 11.7879 17.8552 11.8428L18.8169 10.3212C18.6787 10.2339 18.4843 10.1255 18.2402 9.98888L17.3609 11.5595ZM17.8568 11.8438C17.8748 11.8551 17.8843 11.8615 17.887 11.8634C17.8883 11.8644 17.8882 11.8643 17.8869 11.8634C17.8853 11.8622 17.8837 11.861 17.8842 11.8614L18.9642 10.4214C18.9391 10.4025 18.8937 10.3695 18.8153 10.3202L17.8568 11.8438ZM17.8385 11.8247C17.8333 11.8202 17.8172 11.8063 17.7974 11.787C17.793 11.7827 17.7613 11.7523 17.7263 11.7089C17.7256 11.7081 17.6467 11.6165 17.5915 11.4796C17.581 11.4534 17.4479 11.1522 17.5955 10.7976C17.8088 10.285 18.303 10.2399 18.45 10.2437C18.6039 10.2478 18.7179 10.2914 18.746 10.3021C18.7915 10.3194 18.8261 10.3368 18.8441 10.3463C18.881 10.3656 18.9083 10.3833 18.9194 10.3905C18.9445 10.4069 18.9632 10.421 18.9702 10.4264C18.9875 10.4395 19.0004 10.4504 19.0069 10.4559C19.0338 10.4788 19.0529 10.4981 19.0655 10.5115C19.0929 10.541 19.1155 10.5714 19.1336 10.6038L17.5619 11.481C17.6231 11.5908 17.6903 11.6761 17.7484 11.7384C17.7762 11.7683 17.8071 11.7984 17.8405 11.8268C17.8485 11.8337 17.8627 11.8456 17.8809 11.8594C17.8884 11.8651 17.9075 11.8794 17.9328 11.8961C17.944 11.9034 17.9715 11.9211 18.0084 11.9405C18.0264 11.9499 18.0611 11.9674 18.1066 11.9847C18.1347 11.9954 18.2488 12.0391 18.4027 12.0431C18.5497 12.047 19.0439 12.0018 19.2573 11.4892C19.4049 11.1346 19.2718 10.8334 19.2612 10.8071C19.206 10.6702 19.1271 10.5785 19.1263 10.5776C19.0912 10.5341 19.0592 10.5034 19.0545 10.4988C19.034 10.4788 19.0168 10.4639 19.01 10.4581L17.8385 11.8247ZM18.7872 11.8278L19.9662 11.1681L19.0873 9.59727L17.9083 10.257L18.7872 11.8278ZM20.3064 9.93302C20.1874 9.72682 20.0306 9.54494 19.8442 9.39695L18.7251 10.8068C18.734 10.8139 18.7415 10.8225 18.7471 10.8323L20.3064 9.93302ZM19.8516 9.40287C19.7487 9.31944 19.6405 9.24278 19.5277 9.17337L18.5844 10.7064C18.6308 10.735 18.6754 10.7665 18.7177 10.8009L19.8516 9.40287ZM19.5383 9.18003C19.3619 9.06803 19.127 8.93797 18.9002 8.81053L18.0185 10.3798C18.2723 10.5224 18.4496 10.6209 18.5737 10.6997L19.5383 9.18003ZM17.6737 9.15617L17.0149 10.3352L18.5862 11.2132L19.245 10.0342L17.6737 9.15617ZM20.552 11.3879C20.5577 11.2489 20.5673 11.0467 20.5601 10.8682L18.7616 10.9411C18.7652 11.0291 18.7604 11.1455 18.7535 11.3143L20.552 11.3879ZM20.5607 10.8862C20.554 10.5639 20.4722 10.2477 20.3218 9.96263L18.7299 10.8027C18.7495 10.8399 18.7602 10.8812 18.761 10.9232L20.5607 10.8862ZM19.0866 9.59716L17.9085 10.256L18.787 11.827L19.9651 11.1682L19.0866 9.59716ZM19.1345 10.6044C19.1624 10.6547 19.1794 10.7054 19.1903 10.7543C19.1931 10.7668 19.1959 10.7812 19.1985 10.7974C19.1991 10.8008 19.2021 10.819 19.2046 10.8429C19.2051 10.8471 19.2059 10.855 19.2068 10.865C19.2069 10.8673 19.2098 10.8989 19.2098 10.9387C19.2097 10.9511 19.2088 10.9817 19.2078 10.9998C19.2053 11.0292 19.193 11.1125 19.1808 11.166C19.1389 11.2894 18.8231 11.6786 18.4774 11.8235C18.0777 11.8088 17.6235 11.5215 17.5404 11.4061C17.5117 11.3553 17.4745 11.2743 17.4635 11.2455C17.4573 11.2277 17.4477 11.1975 17.4441 11.1852C17.4373 11.1615 17.4331 11.1426 17.4313 11.1348C17.4251 11.107 17.4216 11.0843 17.4215 11.0838C17.4204 11.0769 17.4196 11.0713 17.4191 11.068C17.4138 11.0314 17.4128 11.0079 17.4127 11.0049L19.2108 10.9232C19.2093 10.8905 19.2065 10.8518 19.2007 10.8115C19.2002 10.8079 19.1994 10.8021 19.1982 10.7951C19.1981 10.7944 19.1945 10.7716 19.1883 10.7438C19.1866 10.736 19.1823 10.7171 19.1756 10.6933C19.172 10.681 19.1624 10.6509 19.1561 10.6331C19.1452 10.6043 19.1079 10.5233 19.0793 10.4725C18.9961 10.357 18.542 10.0697 18.1423 10.055C17.7966 10.2 17.4807 10.5892 17.4389 10.7125C17.4267 10.766 17.4143 10.8494 17.4119 10.8787C17.4108 10.8969 17.4099 10.9275 17.4098 10.9399C17.4099 10.9797 17.4127 11.0113 17.4129 11.0136C17.4137 11.0236 17.4146 11.0316 17.415 11.0359C17.4177 11.0603 17.4208 11.0796 17.4216 11.0848C17.4248 11.1047 17.4288 11.1251 17.4334 11.146C17.4518 11.2282 17.4881 11.3473 17.561 11.4786L19.1345 10.6044ZM17.4129 11.009C17.4126 11.0032 17.4125 11.0004 17.4126 11.0019C17.4126 11.0032 17.4126 11.0065 17.4126 11.0122C17.4126 11.024 17.4125 11.0414 17.4119 11.0655L19.2115 11.1038C19.2128 11.0467 19.2136 10.9782 19.2106 10.9191L17.4129 11.009ZM17.4124 11.0499L17.4043 11.2596L19.203 11.3291L19.2111 11.1194L17.4124 11.0499ZM18.9002 8.41604C19.127 8.28859 19.3619 8.15853 19.5383 8.04654L18.5737 6.52683C18.4496 6.60563 18.2723 6.70418 18.0185 6.84673L18.9002 8.41604ZM19.5376 8.047C19.6429 7.98032 19.7446 7.90823 19.8424 7.831L18.7269 6.41836C18.678 6.45698 18.6271 6.49303 18.5745 6.52636L19.5376 8.047ZM19.8457 7.82841C20.0315 7.68026 20.1877 7.49839 20.3062 7.29234L18.7455 6.39543C18.7399 6.40524 18.7325 6.4139 18.7236 6.42095L19.8457 7.82841ZM19.9651 6.05836L18.787 5.39956L17.9085 6.9706L19.0866 7.6294L19.9651 6.05836ZM19.1358 6.61985C19.1178 6.65235 19.0956 6.68224 19.0697 6.71048C19.057 6.72435 19.0413 6.74003 19.0218 6.75738C19.017 6.76166 19.01 6.76775 19.0014 6.77498C18.9977 6.77805 18.9896 6.78473 18.9791 6.79296C18.9749 6.79619 18.9627 6.80572 18.9465 6.81723C18.9397 6.82199 18.9206 6.83551 18.895 6.85115C18.8831 6.85843 18.8565 6.87438 18.821 6.8917C18.8163 6.89403 18.6938 6.95891 18.5252 6.97765C18.407 6.98297 18.0851 6.91622 17.9 6.81367C17.7072 6.62508 17.5335 6.20092 17.5288 6.00865C17.5438 5.90394 17.5918 5.7448 17.6164 5.68944C17.6337 5.65571 17.6659 5.60083 17.68 5.57931C17.7253 5.51221 17.7711 5.46552 17.7726 5.46399C17.7946 5.44073 17.8133 5.4237 17.8162 5.42101C17.8282 5.40996 17.8378 5.40174 17.8411 5.39896C17.8499 5.39145 17.857 5.38573 17.8611 5.3824L18.9856 6.78796C18.9914 6.78329 18.9997 6.77655 19.0093 6.76837C19.013 6.76525 19.0229 6.75678 19.035 6.74556C19.0381 6.74279 19.0568 6.7257 19.0789 6.70239C19.0803 6.70085 19.1261 6.65414 19.1715 6.58703C19.1856 6.56551 19.2178 6.51062 19.2351 6.4769C19.2597 6.42153 19.3077 6.26239 19.3227 6.15768C19.318 5.96541 19.1443 5.54125 18.9514 5.35266C18.7664 5.2501 18.4445 5.18336 18.3263 5.18867C18.1577 5.20742 18.0352 5.2723 18.0304 5.27463C17.995 5.29195 17.9684 5.30791 17.9565 5.31519C17.9309 5.33084 17.9117 5.34438 17.9049 5.34917C17.8886 5.36072 17.8763 5.37031 17.8721 5.37362C17.8613 5.38204 17.8529 5.38897 17.8488 5.39238C17.8393 5.4003 17.8312 5.40741 17.8248 5.41307C17.7992 5.43591 17.7718 5.46255 17.7439 5.49296C17.6876 5.55427 17.6209 5.63951 17.5597 5.75031L19.1358 6.61985ZM17.8743 5.37207L18.7978 6.91709C18.8583 6.88094 18.9166 6.84128 18.9724 6.79829L17.8743 5.37207ZM17.8509 5.38654C17.7674 5.43997 17.6318 5.51596 17.3621 5.66642L18.239 7.23834C18.4823 7.10261 18.6797 6.9932 18.8212 6.90263L17.8509 5.38654ZM17.4043 5.96707L17.4124 6.17587L19.2111 6.10609L19.203 5.89729L17.4043 5.96707ZM17.4119 6.16013C17.4125 6.18427 17.4126 6.20168 17.4126 6.21343C17.4126 6.2192 17.4126 6.22249 17.4126 6.22373C17.4125 6.22526 17.4126 6.22251 17.4129 6.21664L19.2106 6.30653C19.2136 6.24744 19.2128 6.17892 19.2115 6.12184L17.4119 6.16013ZM17.4127 6.22072C17.4128 6.21774 17.4138 6.19426 17.4191 6.15767C17.4196 6.15432 17.4204 6.14876 17.4215 6.14188C17.4216 6.14131 17.4251 6.11863 17.4313 6.09079C17.4331 6.08306 17.4373 6.06415 17.4441 6.04035C17.4477 6.02805 17.4573 5.99788 17.4636 5.98007C17.4746 5.9512 17.5119 5.87009 17.5406 5.81921C17.624 5.70358 18.0792 5.41643 18.4794 5.40252C18.8242 5.54787 19.1391 5.93671 19.1808 6.05984C19.193 6.11326 19.2053 6.19655 19.2078 6.22586C19.2088 6.24402 19.2097 6.27459 19.2098 6.28699C19.2098 6.32675 19.2069 6.35837 19.2068 6.36062C19.2059 6.37061 19.2051 6.37855 19.2046 6.38275C19.2021 6.40664 19.1991 6.42481 19.1985 6.42825C19.1959 6.44451 19.1931 6.45884 19.1903 6.47139C19.1794 6.52031 19.1624 6.57099 19.1345 6.62126L17.561 5.7471C17.4881 5.87838 17.4518 5.99746 17.4334 6.07968C17.4288 6.10055 17.4248 6.12101 17.4216 6.14086C17.4208 6.14609 17.4176 6.16542 17.415 6.18978C17.4146 6.19405 17.4137 6.20203 17.4129 6.21206C17.4127 6.21435 17.4099 6.246 17.4098 6.28577C17.4099 6.29818 17.4108 6.32875 17.4119 6.34691C17.4143 6.37623 17.4266 6.45951 17.4388 6.51294C17.4805 6.63607 17.7954 7.02491 18.1402 7.17026C18.5404 7.15635 18.9956 6.8692 19.0791 6.75357C19.1078 6.70269 19.1451 6.62158 19.1561 6.59271C19.1623 6.5749 19.172 6.54471 19.1755 6.53242C19.1823 6.50861 19.1866 6.48968 19.1883 6.48194C19.1945 6.45404 19.1981 6.43127 19.1982 6.43056C19.1994 6.42353 19.2002 6.41779 19.2007 6.4142C19.2065 6.3739 19.2093 6.33512 19.2108 6.30245L17.4127 6.22072ZM17.9087 6.96985L19.0877 7.62865L19.9658 6.05732L18.7868 5.39852L17.9087 6.96985ZM20.3234 7.26167C20.4733 6.97647 20.5545 6.66024 20.5607 6.33813L18.761 6.30384C18.7602 6.34586 18.7496 6.3871 18.7301 6.4243L20.3234 7.26167ZM20.5606 6.34006C20.5643 6.16639 20.5608 5.99264 20.5501 5.81926L18.7535 5.92991C18.7612 6.05375 18.7637 6.17785 18.761 6.30191L20.5606 6.34006ZM19.6134 4.9754L18.2652 5.033L18.3421 6.83136L19.6903 6.77376L19.6134 4.9754ZM1.07513 8.81053C0.851374 8.93623 0.613811 9.06686 0.43694 9.17912L1.40155 10.6988C1.52528 10.6203 1.69991 10.5241 1.95676 10.3798L1.07513 8.81053ZM0.447589 9.17247C0.334785 9.24188 0.226607 9.31854 0.123739 9.40197L1.25755 10.8C1.29991 10.7656 1.34445 10.7341 1.3909 10.7055L0.447589 9.17247ZM0.129605 9.39725C-0.0584638 9.54719 -0.213891 9.73069 -0.330868 9.93423L1.22976 10.8311C1.23684 10.8188 1.24507 10.81 1.25168 10.8047L0.129605 9.39725ZM0.0106337 11.1685L1.18873 11.8264L2.06635 10.2548L0.888255 9.5969L0.0106337 11.1685ZM0.839524 10.6058C0.857352 10.5735 0.879961 10.5428 0.907736 10.5127C0.92043 10.499 0.939637 10.4796 0.966636 10.4565C0.973127 10.4509 0.985962 10.4401 1.00303 10.4271C1.01008 10.4217 1.02845 10.4077 1.05313 10.3914C1.06399 10.3842 1.09083 10.3668 1.12694 10.3476C1.14454 10.3382 1.17842 10.3209 1.22298 10.3036C1.25027 10.293 1.36206 10.2492 1.51343 10.2432C1.65101 10.2378 2.15687 10.2708 2.37751 10.7912C2.4616 10.9895 2.45383 11.1662 2.4409 11.2624C2.42747 11.3623 2.4 11.4387 2.38276 11.4812C2.32741 11.6174 2.24854 11.7086 2.24818 11.7091C2.21344 11.7519 2.18206 11.7821 2.17771 11.7863C2.15806 11.8055 2.14208 11.8192 2.13676 11.8238L0.965332 10.4572C0.95843 10.4631 0.941333 10.4778 0.920999 10.4977C0.9163 10.5022 0.884684 10.5327 0.849809 10.5757C0.849379 10.5762 0.770464 10.6675 0.715095 10.8038C0.697855 10.8462 0.670377 10.9227 0.656948 11.0226C0.644019 11.1188 0.636249 11.2955 0.720338 11.4938C0.940982 12.0142 1.44686 12.0472 1.58445 12.0418C1.73584 12.0358 1.84765 11.992 1.87497 11.9814C1.91956 11.9641 1.95347 11.9467 1.97112 11.9373C2.00731 11.9181 2.03426 11.9006 2.04525 11.8933C2.07019 11.8768 2.08892 11.8626 2.09642 11.8569C2.11438 11.8432 2.12848 11.8313 2.13658 11.8244C2.16999 11.7958 2.20101 11.7654 2.229 11.7351C2.28738 11.672 2.35454 11.586 2.41556 11.4754L0.839524 10.6058ZM2.10359 11.8509C2.09141 11.8604 2.08502 11.8647 2.08738 11.863C2.08967 11.8615 2.0992 11.855 2.11845 11.8429L1.16004 10.3193C1.08851 10.3643 1.03766 10.3996 0.998498 10.4301L2.10359 11.8509ZM2.12439 11.8391C2.20788 11.7857 2.34353 11.7097 2.61323 11.5592L1.73626 9.98732C1.49296 10.1231 1.29561 10.2325 1.1541 10.323L2.12439 11.8391ZM2.96027 10.334L2.30147 9.15591L0.730423 10.0344L1.38922 11.2125L2.96027 10.334ZM2.57097 11.2587L2.56287 11.049L0.764215 11.1185L0.772315 11.3282L2.57097 11.2587ZM2.56304 11.0536C2.56237 11.0335 2.56237 11.0134 2.56304 10.9933L0.764049 10.933C0.762029 10.9933 0.762029 11.0536 0.764049 11.1139L2.56304 11.0536ZM2.56262 11.004C2.56248 11.007 2.56147 11.0305 2.55621 11.067C2.55572 11.0704 2.55491 11.0759 2.55379 11.0828C2.5537 11.0834 2.55017 11.106 2.54399 11.1338C2.54228 11.1415 2.53801 11.1603 2.53128 11.1841C2.5277 11.1963 2.51813 11.2264 2.51192 11.2442C2.50096 11.2729 2.46384 11.3538 2.43531 11.4046C2.3523 11.52 1.89785 11.8079 1.49752 11.8226C1.15159 11.6772 0.835969 11.2876 0.794295 11.1644C0.782168 11.111 0.769914 11.0278 0.767474 10.9985C0.766444 10.9804 0.765537 10.9498 0.765465 10.9375C0.765505 10.8978 0.768358 10.8662 0.768544 10.864C0.769372 10.854 0.770199 10.8461 0.770652 10.8419C0.773226 10.8181 0.776198 10.7999 0.776755 10.7965C0.779384 10.7802 0.782207 10.7659 0.785003 10.7534C0.795911 10.7044 0.812875 10.6538 0.840803 10.6035L2.41429 11.4777C2.48721 11.3464 2.52353 11.2273 2.54186 11.1451C2.54651 11.1242 2.55045 11.1038 2.55366 11.0839C2.5545 11.0787 2.55763 11.0594 2.56026 11.0351C2.56072 11.0308 2.56155 11.0229 2.56238 11.0128C2.56257 11.0106 2.56542 10.979 2.56546 10.9393C2.56539 10.9269 2.56448 10.8964 2.56345 10.8783C2.56101 10.849 2.54876 10.7658 2.53663 10.7124C2.49496 10.5892 2.17934 10.1995 1.8334 10.0542C1.43307 10.0689 0.978628 10.3568 0.895611 10.4722C0.867083 10.5229 0.829959 10.6038 0.819 10.6326C0.812794 10.6504 0.803214 10.6804 0.799642 10.6927C0.792905 10.7164 0.788633 10.7353 0.786916 10.743C0.780729 10.7709 0.777183 10.7936 0.777067 10.7943C0.775928 10.8013 0.775083 10.807 0.774567 10.8106C0.768771 10.8509 0.765958 10.8896 0.764472 10.9223L2.56262 11.004ZM2.06656 10.2549L0.887556 9.59612L0.00953215 11.1674L1.18853 11.8262L2.06656 10.2549ZM-0.348139 9.9631C-0.498015 10.2483 -0.579255 10.5645 -0.585392 10.8866L1.21428 10.9209C1.21508 10.8789 1.22568 10.8377 1.24523 10.8005L-0.348139 9.9631ZM-0.584817 10.8673C-0.592116 11.0474 -0.582312 11.2482 -0.575573 11.3922L1.22246 11.3081C1.2148 11.1444 1.2102 11.0266 1.21371 10.9402L-0.584817 10.8673ZM0.361262 12.2494L1.70946 12.1927L1.63383 10.3943L0.285627 10.451L0.361262 12.2494ZM2.6144 5.66618C2.34729 5.51663 2.20693 5.43779 2.12007 5.38289L1.15842 6.90448C1.29656 6.99178 1.491 7.10013 1.73509 7.23678L2.6144 5.66618ZM2.09701 5.36879H2.09701L1.00508 6.79977C1.06149 6.84281 1.12039 6.88248 1.18148 6.91857L2.09701 5.36879ZM2.13676 5.40095C2.14204 5.40548 2.15813 5.41933 2.17791 5.43863C2.18229 5.4429 2.21397 5.47336 2.24898 5.51669C2.24966 5.51752 2.32856 5.60906 2.38371 5.74593C2.39424 5.77207 2.52745 6.07327 2.37988 6.42797C2.16653 6.94081 1.67203 6.98583 1.52517 6.98195C1.37124 6.97788 1.25723 6.9342 1.22918 6.92354C1.18367 6.90624 1.14907 6.88879 1.1311 6.87937C1.09427 6.86006 1.0669 6.84237 1.05586 6.83514C1.03078 6.8187 1.01211 6.80461 1.00501 6.79922C0.987778 6.78612 0.974834 6.77526 0.968368 6.76975C0.941432 6.74683 0.922333 6.72758 0.909817 6.71415C0.882388 6.6847 0.859744 6.6543 0.841666 6.62191L2.41342 5.74465C2.35214 5.63486 2.28495 5.54956 2.22692 5.48727C2.19911 5.45741 2.16819 5.42724 2.13485 5.39887C2.12678 5.392 2.11257 5.38012 2.09443 5.36633C2.08689 5.3606 2.06786 5.34625 2.04251 5.32964C2.03135 5.32232 2.00387 5.30457 1.96696 5.28521C1.94895 5.27577 1.91431 5.25831 1.86877 5.241C1.8407 5.23033 1.72666 5.18664 1.57272 5.18257C1.42584 5.17869 0.931331 5.22372 0.71797 5.73656C0.570397 6.09128 0.703606 6.39249 0.714149 6.41866C0.769316 6.55557 0.848259 6.64716 0.849001 6.64808C0.884149 6.69157 0.916064 6.72229 0.920793 6.7269C0.941262 6.74688 0.958476 6.76174 0.965332 6.76761L2.13676 5.40095ZM1.18808 5.39787L0.00907513 6.05757L0.888013 7.62839L2.06701 6.96869L1.18808 5.39787ZM-0.334173 7.28723C-0.180597 7.55781 0.0142497 7.73121 0.112646 7.81365L1.26864 6.43391C1.25201 6.41998 1.24255 6.41094 1.23601 6.40382C1.22948 6.39671 1.22907 6.39487 1.23126 6.39874L-0.334173 7.28723ZM0.1179 7.81802C0.232408 7.91249 0.348846 7.98967 0.436635 8.04544L1.40185 6.52612C1.33664 6.48469 1.29288 6.45388 1.26339 6.42955L0.1179 7.81802ZM0.43694 8.04564C0.613384 8.15763 0.848274 8.28769 1.07513 8.41514L1.95676 6.84583C1.70301 6.70328 1.5257 6.60473 1.40155 6.52593L0.43694 8.04564ZM2.30161 8.06949L2.96041 6.89049L1.38908 6.01247L0.73028 7.19147L2.30161 8.06949ZM-0.577603 5.83867C-0.583293 5.97767 -0.592951 6.17991 -0.585717 6.35834L1.21281 6.28543C1.20924 6.19746 1.21398 6.08109 1.22089 5.91229L-0.577603 5.83867ZM-0.585477 6.36384C-0.576951 6.54655 -0.546995 6.91038 -0.335579 7.28564L1.23267 6.40212C1.22808 6.39399 1.21664 6.36722 1.21257 6.27993L-0.585477 6.36384ZM0.887557 7.62955L2.06656 6.97075L1.18853 5.39942L0.00953171 6.05822L0.887557 7.62955ZM0.840803 6.62216C0.811861 6.57007 0.793647 6.51608 0.782098 6.46094C0.779295 6.44756 0.775623 6.42811 0.772371 6.40354C0.771516 6.39708 0.770286 6.38723 0.769088 6.37511C0.768736 6.37155 0.765066 6.33695 0.764782 6.29298C0.7647 6.28029 0.764765 6.25438 0.76715 6.22171C0.76787 6.21185 0.77328 6.10967 0.815515 5.9893C0.829753 5.94872 0.898839 5.747 1.10347 5.58375C1.20941 5.51098 1.46788 5.40909 1.61661 5.38858C1.7593 5.39227 2.00718 5.45498 2.10931 5.50475C2.30298 5.61478 2.39949 5.76596 2.4214 5.79999C2.45791 5.85668 2.48005 5.90528 2.49033 5.92896C2.52483 6.00845 2.53989 6.0773 2.53992 6.07745C2.54449 6.09651 2.54746 6.11172 2.54891 6.11937C2.5571 6.16263 2.55983 6.19558 2.55999 6.19723C2.56105 6.2088 2.56151 6.21712 2.56172 6.22161L0.763573 6.30335C0.764593 6.32581 0.767507 6.38652 0.780346 6.45431C0.781838 6.46219 0.784849 6.47759 0.789449 6.49679C0.78952 6.49708 0.804606 6.56603 0.839128 6.64557C0.849409 6.66926 0.871556 6.71788 0.90807 6.77457C0.929992 6.80862 1.0265 6.9598 1.22018 7.06983C1.32231 7.1196 1.5702 7.18231 1.71288 7.186C1.86162 7.16549 2.12009 7.0636 2.22603 6.99083C2.43067 6.82757 2.49975 6.62585 2.514 6.58526C2.55624 6.46487 2.56165 6.36267 2.56237 6.35276C2.56476 6.32006 2.56483 6.2941 2.56474 6.28135C2.56446 6.23714 2.56076 6.20213 2.56035 6.198C2.5591 6.18531 2.55778 6.17472 2.55681 6.16736C2.55308 6.13921 2.54841 6.11363 2.54387 6.09192C2.52534 6.00348 2.48823 5.8811 2.41429 5.748L0.840803 6.62216ZM2.56214 6.23233C2.56147 6.21224 2.56147 6.19213 2.56214 6.17203L0.763149 6.11173C0.761129 6.17202 0.761129 6.23235 0.763149 6.29263L2.56214 6.23233ZM2.56197 6.17662L2.57007 5.96692L0.771415 5.89744L0.763315 6.10714L2.56197 6.17662ZM1.70854 5.03298L0.359436 4.97628L0.283852 6.77469L1.63295 6.83139L1.70854 5.03298ZM13.3743 4.1086L13.3671 1.8568L11.5672 1.86256L11.5743 4.11436L13.3743 4.1086ZM12.4641 0.959687L11.115 0.964187L11.121 2.76418L12.4701 2.75968L12.4641 0.959687ZM10.218 1.8667L10.2243 4.1176L12.0243 4.11256L12.018 1.86166L10.218 1.8667ZM11.1267 5.01508L12.4767 5.01148L12.4719 3.21149L11.1219 3.21509L11.1267 5.01508ZM12.6939 3.43831C12.783 3.4376 12.8714 3.45453 12.9539 3.48813L12.2751 5.15521C12.4126 5.21122 12.5598 5.23944 12.7083 5.23825L12.6939 3.43831ZM12.9539 3.48813C13.0364 3.52174 13.1115 3.57135 13.1747 3.63409L11.907 4.91195C12.0124 5.01653 12.1375 5.09921 12.2751 5.15521L12.9539 3.48813ZM13.1747 3.63409C13.238 3.69684 13.2882 3.77149 13.3225 3.85375L11.6608 4.54586C11.7179 4.68295 11.8016 4.80737 11.907 4.91195L13.1747 3.63409ZM13.3225 3.85375C13.3567 3.93598 13.3743 4.0242 13.3743 4.11331L11.5743 4.11325C11.5743 4.26176 11.6037 4.40879 11.6608 4.54586L13.3225 3.85375ZM12.4743 3.21328H11.1243V5.01328H12.4743V3.21328ZM10.2243 4.11328C10.2243 5.48355 11.3367 6.58828 12.7011 6.58828V4.78828C12.3268 4.78828 12.0243 4.48542 12.0243 4.11328H10.2243ZM13.6011 5.68828V4.33828H11.8011V5.68828H13.6011ZM12.0306 4.11328C12.0306 3.7363 12.3351 3.43828 12.7029 3.43828V5.23828C13.3246 5.23828 13.8306 4.73506 13.8306 4.11328H12.0306ZM11.8029 4.33828V5.68828H13.6029V4.33828H11.8029ZM12.7029 6.58828C14.0667 6.58828 15.1806 5.48421 15.1806 4.11328H13.3806C13.3806 4.48475 13.078 4.78828 12.7029 4.78828V6.58828ZM12.0306 1.87768V4.11328H13.8306V1.87768H12.0306ZM15.1806 4.11328V1.87768H13.3806V4.11328H15.1806ZM14.0236 3.00509C16.0198 3.05618 16.5453 3.28713 16.8415 3.58287L18.1133 2.30909C17.2522 1.44924 16.0119 1.25539 14.0697 1.20568L14.0236 3.00509ZM18.1144 3.58178L19.0684 2.62598L17.7944 1.35439L16.8405 2.31019L18.1144 3.58178ZM19.067 1.35293C17.784 0.0734253 16.0131 -0.0945256 14.1043 -0.144312L14.0574 1.65508C16.0132 1.70609 17.0755 1.90894 17.7959 2.62744L19.067 1.35293ZM13.3806 1.87768C13.3806 1.50104 13.689 1.19774 14.0654 1.20558L14.0279 3.00519C14.6635 3.01843 15.1806 2.50633 15.1806 1.87768H13.3806ZM14.1032 -0.144339C13.8334 -0.151048 13.5651 -0.103696 13.3139 -0.0050739L13.9717 1.67041C13.9993 1.65957 14.0288 1.65437 14.0585 1.6551L14.1032 -0.144339ZM13.3139 -0.0050739C13.0627 0.0935482 12.8338 0.241446 12.6406 0.429906L13.8977 1.71823C13.9189 1.69751 13.9441 1.68125 13.9717 1.67041L13.3139 -0.0050739ZM12.6406 0.429906C12.4475 0.618366 12.294 0.843577 12.1892 1.09227L13.8481 1.79104C13.8596 1.7637 13.8765 1.73894 13.8977 1.71823L12.6406 0.429906ZM12.1892 1.09227C12.0845 1.34096 12.0306 1.60811 12.0306 1.87796L13.8306 1.8774C13.8306 1.84774 13.8366 1.81837 13.8481 1.79104L12.1892 1.09227ZM11.3457 1.18829C11.5282 1.18902 11.6989 1.2632 11.8222 1.38694L10.5469 2.65718C10.7541 2.86527 11.0371 2.98707 11.3385 2.98828L11.3457 1.18829ZM11.8222 1.38694C11.9482 1.51345 12.0189 1.68474 12.0189 1.86329L10.2189 1.86328C10.2189 2.16087 10.3369 2.44633 10.5469 2.65718L11.8222 1.38694ZM11.1213 2.76328L12.4713 2.75968L12.4665 0.959685L11.1165 0.963286L11.1213 2.76328ZM13.3689 1.8568C13.3672 1.32086 13.1531 0.807459 12.7735 0.429098L11.5028 1.70393C11.545 1.74597 11.5688 1.80301 11.5689 1.86256L13.3689 1.8568ZM12.7735 0.429098C12.394 0.0507378 11.8799 -0.16172 11.3439 -0.161718L11.3439 1.63828C11.4035 1.63828 11.4606 1.66189 11.5028 1.70393L12.7735 0.429098ZM10.4439 0.737082L10.4421 2.08708L12.2421 2.08948L12.2439 0.739482L10.4439 0.737082ZM14.5845 17.3551C16.2843 17.2825 17.8782 17.0592 19.0663 15.8734L17.7948 14.5994C17.1343 15.2586 16.183 15.4852 14.5078 15.5567L14.5845 17.3551ZM19.0672 14.6003L18.1123 13.6445L16.8389 14.9167L17.7938 15.8725L19.0672 14.6003ZM16.8392 13.6442C16.5763 13.9071 16.1097 14.1379 14.4525 14.2076L14.5282 16.006C16.2082 15.9353 17.3202 15.7088 18.112 14.917L16.8392 13.6442ZM12.0306 13.1133V14.8926H13.8306V13.1133H12.0306ZM15.1806 14.8926V13.1133H13.3806V14.8926H15.1806ZM14.2806 12.2133H12.9306V14.0133H14.2806V12.2133ZM10.2207 14.9133C10.2207 15.0282 10.2206 15.0926 10.2187 15.1428L12.0174 15.2111C12.0209 15.1192 12.0207 15.0162 12.0207 14.9133H10.2207ZM10.2183 15.1545C10.2177 15.1802 10.2169 15.1949 10.2164 15.2014C10.216 15.2078 10.216 15.2041 10.2175 15.1935L12.0006 15.4395C12.0105 15.3678 12.0155 15.2899 12.0178 15.1995L10.2183 15.1545ZM10.2175 15.1935C10.2183 15.1878 10.2195 15.18 10.2213 15.1701C10.2219 15.1663 10.2234 15.1586 10.2222 15.1648C10.2221 15.1656 10.2214 15.1691 10.2206 15.1736C10.2202 15.1758 10.2194 15.1802 10.2185 15.1857C10.2179 15.1893 10.2158 15.2025 10.2136 15.2195C10.2127 15.227 10.2103 15.2464 10.2086 15.2713C10.2078 15.2842 10.2067 15.3163 10.2065 15.3355C10.2072 15.3667 10.2151 15.4561 10.2251 15.5138C10.2633 15.6466 10.5685 16.0536 10.9088 16.2101C11.2859 16.2141 11.738 15.9734 11.8294 15.8682C11.863 15.8198 11.908 15.7416 11.9218 15.7134C11.9298 15.6959 11.9423 15.6661 11.947 15.6541C11.9616 15.616 11.9705 15.5843 11.9707 15.5836C11.9732 15.5748 11.9751 15.5679 11.9759 15.565C11.9785 15.5552 11.9826 15.5389 11.9798 15.5498C11.9743 15.572 11.9667 15.5984 11.9559 15.6267L10.2729 14.9883C10.2523 15.0426 10.2402 15.0867 10.2335 15.1133C10.2307 15.1248 10.2346 15.1088 10.2372 15.0992C10.238 15.0963 10.2398 15.0894 10.2424 15.0806C10.2426 15.0799 10.2515 15.0483 10.2661 15.0102C10.2708 14.9981 10.2833 14.9684 10.2913 14.9508C10.3051 14.9227 10.3501 14.8445 10.3836 14.796C10.4751 14.6908 10.9272 14.4502 11.3043 14.4541C11.6446 14.6107 11.9498 15.0176 11.988 15.1505C11.998 15.2082 12.0059 15.2975 12.0065 15.3287C12.0064 15.3479 12.0053 15.3801 12.0045 15.393C12.0028 15.4179 12.0004 15.4372 11.9995 15.4448C11.9973 15.4617 11.9951 15.4749 11.9946 15.4785C11.9936 15.484 11.9929 15.4883 11.9925 15.4906C11.9917 15.495 11.991 15.4984 11.9909 15.4992C11.9898 15.5048 11.9916 15.4957 11.9927 15.4894C11.9954 15.4747 11.998 15.4582 12.0006 15.4395L10.2175 15.1935ZM11.9338 15.6799C11.9076 15.7375 11.8715 15.7901 11.8271 15.8351L10.544 14.5728C10.4404 14.6781 10.3562 14.8007 10.2951 14.9351L11.9338 15.6799ZM10.5482 15.8395L11.5013 16.7953L12.7759 15.5243L11.8228 14.5685L10.5482 15.8395ZM12.7855 16.7855C13.0989 16.4616 13.2946 16.042 13.3416 15.5938L11.5513 15.4064C11.5463 15.4544 11.5253 15.4993 11.4918 15.534L12.7855 16.7855ZM13.3381 15.6223C13.3725 15.3713 13.3691 15.085 13.3698 14.922L11.5699 14.9136C11.5688 15.1358 11.569 15.2743 11.5548 15.3779L13.3381 15.6223ZM12.4728 14.0178L11.1237 14.0133L11.1177 15.8133L12.4668 15.8178L12.4728 14.0178ZM10.8948 17.3883C11.062 17.3883 11.3478 17.3921 11.6003 17.3574L11.3558 15.5741C11.2537 15.5881 11.1129 15.5883 10.8948 15.5883V17.3883ZM11.6002 17.3575C11.8931 17.3173 12.3657 17.2038 12.7737 16.7975L11.5036 15.522C11.492 15.5336 11.4801 15.5415 11.4614 15.5491C11.4394 15.5582 11.4068 15.5671 11.3559 15.5741L11.6002 17.3575ZM12.7756 15.524L11.8216 14.5682L10.5476 15.8398L11.5016 16.7956L12.7756 15.524ZM11.8077 15.8534C11.7617 15.8976 11.7082 15.9332 11.6498 15.9587L10.9301 14.3088C10.7937 14.3683 10.6689 14.4515 10.5616 14.5545L11.8077 15.8534ZM11.6445 15.961C11.6041 15.9783 11.5655 15.9902 11.5316 15.9987C11.53 15.9991 11.5288 15.9994 11.5285 15.9995C11.5255 16.0002 11.5314 15.9988 11.5367 15.9974C11.5386 15.9969 11.5427 15.9959 11.548 15.9945C11.5508 15.9937 11.5649 15.9899 11.5828 15.9843C11.5896 15.9822 11.6136 15.9747 11.6436 15.9629C11.6606 15.956 11.7052 15.9359 11.7325 15.9222C11.7844 15.8927 11.9519 15.7602 12.0509 15.642C12.2083 15.226 11.9537 14.4924 11.6626 14.2957C11.5552 14.2584 11.3961 14.2292 11.3479 14.2261C11.2818 14.2236 11.2292 14.2294 11.2255 14.2298C11.1986 14.2324 11.1773 14.2359 11.1753 14.2362C11.1685 14.2372 11.1633 14.2381 11.161 14.2385C11.1564 14.2393 11.1527 14.24 11.1523 14.2401C11.1503 14.2404 11.1576 14.2391 11.1655 14.2378C11.1804 14.2353 11.193 14.2337 11.2031 14.2326L11.3948 16.0224C11.4175 16.0199 11.4384 16.0171 11.4579 16.0139C11.4682 16.0122 11.4768 16.0106 11.4754 16.0108C11.475 16.0109 11.4714 16.0116 11.4668 16.0124C11.4645 16.0127 11.4593 16.0136 11.4526 16.0147C11.4506 16.015 11.4293 16.0184 11.4023 16.0211C11.3987 16.0214 11.3461 16.0273 11.28 16.0248C11.2318 16.0217 11.0726 15.9925 10.9653 15.9551C10.6742 15.7585 10.4196 15.0248 10.577 14.6088C10.6759 14.4906 10.8435 14.3582 10.8954 14.3287C10.9227 14.3149 10.9673 14.2949 10.9842 14.288C11.0142 14.2762 11.0383 14.2686 11.0451 14.2665C11.0629 14.2609 11.0771 14.2571 11.0799 14.2564C11.0851 14.255 11.0892 14.2539 11.0911 14.2534C11.0963 14.2521 11.1021 14.2507 11.0989 14.2515C11.0984 14.2516 11.0969 14.252 11.0951 14.2524C11.0567 14.262 11.001 14.2784 10.9354 14.3066L11.6445 15.961ZM11.2063 14.2323C11.183 14.2347 11.1596 14.2362 11.1361 14.2368L11.181 16.0362C11.2513 16.0344 11.3216 16.0299 11.3916 16.0227L11.2063 14.2323ZM11.1361 14.2368C11.0778 14.2382 11.0067 14.2383 10.8948 14.2383V16.0383C10.999 16.0383 11.0953 16.0383 11.181 16.0362L11.1361 14.2368ZM14.4529 14.2076C14.339 14.2123 14.271 14.2152 14.2162 14.2159L14.2389 16.0157C14.3263 16.0146 14.4257 16.0103 14.5278 16.006L14.4529 14.2076ZM14.2162 14.2159C14.2013 14.216 14.1892 14.2161 14.1796 14.2161C14.1699 14.2161 14.1635 14.216 14.1598 14.216C14.1559 14.2159 14.1565 14.2158 14.1605 14.2161C14.164 14.2162 14.1747 14.2169 14.1901 14.2186L13.9914 16.0076C14.0788 16.0173 14.1735 16.0165 14.2389 16.0157L14.2162 14.2159ZM14.1901 14.2186C14.1997 14.2197 14.2203 14.2222 14.2481 14.2275C14.255 14.2288 14.2681 14.2314 14.2847 14.2353C14.2921 14.2371 14.3083 14.241 14.3287 14.2469C14.3385 14.2497 14.3574 14.2554 14.3808 14.2638C14.3887 14.2666 14.4595 14.2909 14.5401 14.3392C14.5582 14.35 14.7092 14.4356 14.8273 14.6136C14.8959 14.7171 14.9961 14.9173 14.9742 15.1847C14.9508 15.469 14.8033 15.6696 14.6756 15.7832C14.477 15.9601 14.2588 15.9927 14.2429 15.9956C14.1801 16.0074 14.1298 16.0097 14.1082 16.0105C14.0611 16.0121 14.0244 16.0095 14.0121 16.0087C13.995 16.0074 13.9813 16.0059 13.9728 16.0049C13.9436 16.0015 13.9211 15.9974 13.9144 15.9961C13.853 15.9848 13.8055 15.9692 13.77 15.955L14.4385 14.2838C14.376 14.2588 14.3095 14.2387 14.2421 14.2262C14.2346 14.2248 14.2116 14.2206 14.182 14.2171C14.1735 14.2161 14.1596 14.2146 14.1425 14.2134C14.1302 14.2125 14.0934 14.2099 14.0463 14.2116C14.0247 14.2123 13.9744 14.2146 13.9115 14.2264C13.8957 14.2294 13.6775 14.2619 13.4788 14.4388C13.3512 14.5524 13.2036 14.753 13.1802 15.0374C13.1583 15.3047 13.2585 15.5049 13.3271 15.6084C13.4452 15.7865 13.5963 15.872 13.6143 15.8829C13.6949 15.9312 13.7658 15.9555 13.7737 15.9583C13.7972 15.9667 13.8162 15.9724 13.826 15.9753C13.8465 15.9812 13.8629 15.9852 13.8706 15.987C13.8877 15.9911 13.9017 15.9938 13.9095 15.9953C13.9412 16.0014 13.9696 16.0052 13.9914 16.0076L14.1901 14.2186ZM13.7857 15.9611C13.74 15.9438 13.7043 15.9246 13.6776 15.9078C13.65 15.8904 13.6245 15.8709 13.6009 15.8491L14.8218 14.5265C14.7095 14.4228 14.5734 14.3346 14.4227 14.2776L13.7857 15.9611ZM12.6542 16.812C13.0754 17.216 13.5584 17.3215 13.872 17.3517L14.0449 15.56C13.9961 15.5553 13.9641 15.5475 13.9429 15.5394C13.9251 15.5327 13.9129 15.5252 13.9001 15.5129L12.6542 16.812ZM13.8698 17.3515C14.1282 17.3771 14.4122 17.3623 14.584 17.3551L14.5083 15.5567C14.2949 15.5657 14.1523 15.5707 14.0471 15.5603L13.8698 17.3515ZM12.0306 14.8926C12.0306 15.0639 12.0269 15.3541 12.0625 15.6123L13.8456 15.3663C13.8308 15.2591 13.8306 15.1136 13.8306 14.8926H12.0306ZM12.0624 15.6116C12.1049 15.9213 12.2288 16.4039 12.654 16.8119L13.9003 15.5131C13.8868 15.5002 13.8784 15.4876 13.8707 15.4695C13.8616 15.448 13.8524 15.4159 13.8457 15.367L12.0624 15.6116ZM13.5915 15.8403C13.5242 15.7764 13.4854 15.7097 13.4627 15.6586L15.1076 14.9276C15.0561 14.8117 14.9705 14.6676 14.8312 14.5353L13.5915 15.8403ZM13.4495 15.6273C13.436 15.5935 13.4247 15.5571 13.4157 15.5175C13.4147 15.5131 13.4131 15.5057 13.4112 15.4963C13.4108 15.4944 13.4096 15.4886 13.4083 15.4811C13.408 15.4797 13.4057 15.4672 13.4033 15.4513C13.4026 15.4465 13.401 15.4346 13.4001 15.4277C13.3988 15.4165 13.3959 15.3848 13.3947 15.3643C13.3935 15.3141 13.4473 15.0121 13.5685 14.7854C14.2694 14.4191 15.0608 14.8484 15.1182 14.9583C15.1315 14.9905 15.1488 15.0385 15.1537 15.054C15.1564 15.063 15.1607 15.0779 15.1623 15.0839C15.1653 15.0951 15.1675 15.1039 15.1683 15.1073C15.1702 15.1153 15.1716 15.1215 15.1721 15.1237C15.1734 15.1293 15.1743 15.1336 15.1747 15.1357C15.1777 15.1503 15.1797 15.1619 15.1809 15.1687C15.1836 15.185 15.1853 15.1983 15.1863 15.208L13.3966 15.3998C13.399 15.4221 13.4019 15.4437 13.4054 15.4646C13.4069 15.4736 13.4091 15.4865 13.4123 15.5016C13.4127 15.5037 13.4136 15.5081 13.4149 15.5137C13.4154 15.516 13.4168 15.5222 13.4187 15.5301C13.4195 15.5336 13.4217 15.5424 13.4247 15.5536C13.4263 15.5596 13.4306 15.5745 13.4333 15.5835C13.4382 15.599 13.4555 15.647 13.4688 15.6791C13.5262 15.7891 14.3176 16.2184 15.0185 15.8521C15.1397 15.6254 15.1935 15.3234 15.1924 15.2732C15.1911 15.2527 15.1882 15.221 15.1869 15.2098C15.186 15.2028 15.1844 15.191 15.1837 15.1862C15.1813 15.1703 15.179 15.1578 15.1787 15.1564C15.1774 15.1489 15.1762 15.143 15.1758 15.141C15.1739 15.1315 15.1721 15.1236 15.171 15.1186C15.1609 15.0741 15.1451 15.0197 15.1208 14.9588L13.4495 15.6273ZM15.1867 15.2117C15.1843 15.1879 15.1828 15.164 15.1822 15.1401L13.3827 15.1815C13.3843 15.2532 13.3888 15.3248 13.3962 15.3961L15.1867 15.2117ZM15.1822 15.1383C15.1807 15.08 15.1806 15.0073 15.1806 14.8926H13.3806C13.3806 14.9992 13.3806 15.0975 13.3827 15.1833L15.1822 15.1383Z" fill="black" fill-opacity="0.5" mask="url(#path-1-inside-1_2782_459)"/>
</svg>
