<svg width="35" height="42" viewBox="0 0 35 42" fill="none" xmlns="http://www.w3.org/2000/svg">
<g clip-path="url(#clip0_2652_922)">
<path d="M17.7026 3.51225L17.8641 3.5L18.0312 3.51225L18.1148 3.52625L18.2012 3.549L18.3584 3.6085C18.467 3.65807 18.5702 3.7239 18.6658 3.8045L18.8131 3.948L19.1743 4.3295C22.0317 7.26174 25.643 8.83628 29.3572 8.76925L29.8416 8.75175C30.1583 8.7339 30.4707 8.84784 30.7288 9.07532C30.9869 9.30281 31.1757 9.6307 31.2651 10.0065C31.9612 12.9318 32.1742 16 31.8914 19.029C31.6087 22.058 30.8361 24.9858 29.6194 27.6386C28.4027 30.2913 26.7669 32.6149 24.809 34.4711C22.8512 36.3273 20.6113 37.6784 18.2224 38.444C17.9893 38.5187 17.7445 38.5187 17.5114 38.444C15.1224 37.6786 12.8824 36.3277 10.9244 34.4715C8.96634 32.6154 7.33032 30.2919 6.1135 27.6391C4.89669 24.9863 4.12392 22.0584 3.84112 19.0293C3.55832 16.0003 3.77125 12.9319 4.46727 10.0065C4.55666 9.6307 4.74552 9.30281 5.00361 9.07532C5.26169 8.84784 5.57409 8.7339 5.8908 8.75175C9.76829 8.97073 13.5723 7.39373 16.5581 4.3295L16.9306 3.93575L17.0666 3.8045C17.1622 3.7239 17.2654 3.65807 17.374 3.6085L17.5326 3.549C17.5882 3.53256 17.6459 3.52029 17.7026 3.51225Z" fill="#212121"/>
<circle cx="30.0877" cy="9.9823" r="4.24598" fill="white"/>
<g clip-path="url(#clip1_2652_922)">
<path fill-rule="evenodd" clip-rule="evenodd" d="M31.8044 7.9539C31.8552 7.92339 31.9157 7.91371 31.9735 7.9269C32.0312 7.94009 32.0815 7.97512 32.114 8.02465L32.3406 8.37036C32.3702 8.41553 32.3828 8.46967 32.3763 8.52325C32.3698 8.57683 32.3446 8.62639 32.3051 8.66319L32.3045 8.66411L32.3012 8.66708L32.2882 8.67922L32.2367 8.72844C31.9517 9.00493 31.6753 9.29019 31.4079 9.5838C30.9049 10.1369 30.3076 10.8609 29.9055 11.5633C29.7933 11.7593 29.5193 11.8014 29.3567 11.6322L27.872 10.0895C27.8507 10.0674 27.8341 10.0413 27.8231 10.0126C27.8122 9.98393 27.8071 9.95336 27.8082 9.92269C27.8093 9.89202 27.8165 9.86188 27.8295 9.83406C27.8424 9.80625 27.8609 9.78132 27.8837 9.76077L28.3324 9.35599C28.3718 9.32044 28.4224 9.2997 28.4754 9.29731C28.5285 9.29493 28.5807 9.31106 28.6232 9.34294L29.3808 9.91097C30.5642 8.74401 31.2353 8.29618 31.8044 7.9539Z" fill="#212121"/>
</g>
</g>
<path d="M9.51244 16.259L21.0596 16.31C21.621 16.3125 21.8455 17.0364 21.3839 17.356L12.3967 23.5802" stroke="white" stroke-width="0.340536"/>
<path d="M9.45194 15.5179L22.6375 15.6546C23.327 15.6618 23.6081 16.5445 23.0496 16.9489L12.7961 24.3745" stroke="white" stroke-width="0.42424"/>
<path d="M24.6367 28.4387L13.0897 28.3555C12.5283 28.3514 12.3059 27.627 12.7683 27.3086L21.7728 21.1096" stroke="white" stroke-width="0.340536"/>
<path d="M24.6937 29.18L11.5085 29.0065C10.819 28.9974 10.5405 28.1139 11.1001 27.711L21.3742 20.3141" stroke="white" stroke-width="0.42424"/>
<defs>
<clipPath id="clip0_2652_922">
<rect width="33.9948" height="42" fill="white" transform="translate(0.879883)"/>
</clipPath>
<clipPath id="clip1_2652_922">
<rect width="5.49479" height="5.49479" fill="white" transform="translate(27.3405 7.23511)"/>
</clipPath>
</defs>
</svg>
